<?xml-stylesheet href="acid1.css" type="text/css"?><svg xmlns="http://www.w3.org/2000/svg" xmlns:svg="http://invalid-url/" xmlns:SVG="http://www.w3.org/2000/svg" xmlns:scalable_vector_graphics="http://www.w3.org/2000/svg" xmlns:xlink="http://www.w3.org/1999/xlink" xmlns:xl="http://www.w3.org/1999/xlink" xmlns:html="http://www.w3.org/1999/xhtml" width="600" height="400" viewBox="-600 -400 1200 800" x="-10000" y="-10000"><title><html:h1>SVG Acid Test 1</html:h1></title><desc><html:p>This test incorporates many key features of<html:a href="http://www.w3.org/TR/SVG11/index.html">SVG</html:a>Tiny 1.1 into one document. It is embedded into the HTML harness document in a variety of manners.</html:p></desc><style type="text/css"><![CDATA[
     /* Test 21 */
     path,g { color: white; }
     #nose:hover { fill: rgb(0,0, 258); }
     ]]></style><defs><g id="right-eye-defn"><circle cx="10%" cy="-180" r="33.9" fill="#f00" stroke="#f00" stroke-width="5"/><scalable_vector_graphics:path fill="inherit" stroke="#000" stroke-width="5" d="M153.9,-180 A33.9,33.9 90 1 1 120,-213.9 a33.9,33.9 90 0 1 33.9,33.9Z"/><ellipse cx="120" cy="-22.5%" rx="20" ry="20" fill="rgb(-5%, 128, 0%)"/></g></defs><g id="top-group" transform="translate(0 50) scale(.85)"><circle fill="#0ff" stroke="#f00" stroke-width="4.233mm" cy="-5%" r="4in"/><SVG:circle id="head" fill="#ff0" class="head" cx="0" cy="-5%" r="288pt"/><svg:path d="M-250,-500 L-190,-380 L-250,-343 Z" fill="#f00"/><path xmlns="http://invalid.namespace/" d="M250-500l-60 120 60 37z" fill="#f00"/><svg x="-200" y="-250" width="400" height="100"/><g id="left-eye" fill="#fff" xmlns="http://www.w3.org/2000/svg"><circle cx="-10%" cy="-180" r="33.9" fill="#f00" stroke="#f00" stroke-width="5"/><scalable_vector_graphics:circle cx="-120" cy="-22.5%" r="3.4%" fill="inherit" stroke="#000" stroke-width="5"/><SVG:circle cx="-120" cy="-22.5%" r="2%" fill="#f00"/></g><switch fill="#f00"><rect x="-200" y="-300" width="200" height="200" fill="#ffa500" requiredFeatures="http://www.w3.org/TR/SVG11/feature#Shape bogus-feature"/><rect x="-200" y="-300" width="200" height="200" fill="#800080" requiredFeatures="http://www.w3.org/TR/SVG11/feature#Shape" requiredExtensions="bogus-extension"/><use id="right-eye" xl:href="#right-eye-defn" requiredFeatures="http://www.w3.org/TR/SVG11/feature#Shape"/><rect x="-200" y="-300" width="200" height="200" fill="#f00"/></switch><symbol id="nose-symbol"><rect x="-55" y="-55" width="110" height="110" fill="inherit"/></symbol><circle r="25" fill="#f00"/><use id="nose" xlink:href="#nose-symbol" x="-27.5" y="-27.5" transform="rotate(45)"/><path stroke="#000" stroke-width="5" transform="matrix(NaN NaN NaN NaN NaN NaN)" d="M-335 100m100 0c85 50 385 50 470 0-85 200-385 2 2-470vundefinedz"/><path stroke="#000" stroke-width="5" d="M-230 65c-35-5-60 20-50 45" fill="none"/><path stroke="#f00" stroke-width="4" d="M230 65c35-5 60 20 50 45" fill="none"/><path stroke="#000" stroke-width="5" d="M230 65q60-1 50 45" fill="none"/><path fill="currentColor" stroke="#333" stroke-width="5" d="M1 138l44-2v49h-44z"/><path transform="skewX(45)" d="M-139 138l-44-2-47 49h44z" fill="currentColor" stroke="#333" stroke-width="5"/><path transform="skewY(45)" fill="#fff" stroke="#333" stroke-width="5" d="M48 88l43-45v50l-43 43z"/><path transform="matrix(0 1 1 0 1000 1000)" fill="#fff" stroke="#333" stroke-width="5" d="M-864-1048l-2-43h50v43z"/><g fill="#fff" stroke="#333" stroke-width="5"><path d="M-135 130l40 4v46h-40zM135 130l-40 4v46h40z"/></g><text font-family="Arial" font-size="100" fill="#00f" y="-440" text-anchor="middle">Hello World!</text></g></svg>