<svg xmlns="http://www.w3.org/2000/svg" xmlns:xlink="http://www.w3.org/1999/xlink" xmlns:sodipodi="http://inkscape.sourceforge.net/DTD/sodipodi-0.dtd" sodipodi:version=".32" width="480" height="360" sodipodi:docbase="D:\wiki_svg" sodipodi:docname="Drama-icon.png.svg" version="1"><sodipodi:namedview borderopacity="1" bordercolor="#666666" pagecolor="#ffffff" borderlayer="top"/><g><g><path d="M104 75.5c-21.991 2.426-48.5-2.5-66-2s-23 3-25 8.5-.5 22 2 30.5 10.598 30.225 18 44c4.133 7.692 13.5 26.5 21 34.5s24.5 25.5 31 30.5 21 16 26.5 25 26 28 34.5 31 21 6.5 38.5 1 27-18.5 29-24 8-25.5 8-38.5 6.5-43 8.5-48.5 7-31 6-42.5-3.5-39.5-7-52-11.5-39-16-44-8.5-14.5-15.5-12-30 20-36 26-18.291 15.465-26 20c-17 10-21.194 11.363-31.5 12.5z" sodipodi:nodetypes="csssssssssssssssssss" fill="#fff" fill-rule="evenodd" stroke="#000" stroke-width="6.5"/><path d="M159 151l40.5-54.5 14.5 20-55 34.5z" id="a" fill-rule="evenodd"/><use xlink:href="#a" transform="matrix(-.808 .59 .59 .808 166.653 -54.67)" width="480" height="360"/><path d="M162.75 217.5c-15.67 4.199-31.268-1.521-36.5 1.5-3.98 2.298-3.663 18.122 14 31.25 12.32 9.157 28.869 7.161 36 5.25 7.716-2.068 21.519-11.029 26-27.75 2.879-10.743-.872-28.943-5.75-30.25-8.1-2.17-18.93 16.029-33.75 20z" sodipodi:nodetypes="cssssss" fill-rule="evenodd"/></g><g><path d="M356.177 128.586c-20.959-7.086-42.909-22.745-58.983-29.682-16.075-6.936-22.116-6.992-26.251-2.851-4.135 4.141-9.743 19.731-11.066 28.492-1.323 8.761-3.155 31.873-2.262 47.486.499 8.718 1.048 29.722 4.468 40.141 3.421 10.419 11.441 33.46 15.222 40.737 3.781 7.277 12.28 23.371 13.465 33.852 1.185 10.481 11.745 36.36 18.184 42.669 6.438 6.309 16.291 14.759 34.477 17.163 18.186 2.404 32.287-5.369 36.422-9.51 4.135-4.141 18.019-19.737 23.508-31.521 5.489-11.784 24.049-36.234 28.184-40.375 4.135-4.141 19.435-25.145 23.385-35.992 3.949-10.847 13.506-37.284 15.612-50.093 2.105-12.809 6.043-40.209 4.075-46.641-1.968-6.433-1.582-16.733-8.983-17.423-7.401-.69-35.639 5.462-43.612 8.367-7.972 2.905-23.11 6.296-32.013 7.151-19.633 1.887-24.01 1.351-33.832-1.97z" sodipodi:nodetypes="csssssssssssssssssss" fill-rule="evenodd"/><path d="M346.011 177.625l-59.914 31.951-4.556-24.279 64.47-7.671z" id="b" fill="#fff" fill-rule="evenodd"/><use xlink:href="#b" transform="matrix(-.971 -.24 -.24 .971 757.278 91.852)" width="480" height="360"/><path d="M347.318 297.523c-16.18-1.188-30.429 7.354-36.134 5.367-4.341-1.511-6.995-17.114 7.895-33.32 10.385-11.304 27.015-12.445 34.378-11.904 7.967.585 23.205 6.8 30.74 22.385 4.841 10.013 4.568 28.593.021 30.792-7.549 3.65-21.598-12.197-36.9-13.32z" sodipodi:nodetypes="cssssss" fill="#fff" fill-rule="evenodd"/></g></g></svg>