<?xml version="1.0" standalone="no"?>
<svg height="400" width="800" viewBox="0 0 800 400" xmlns="http://www.w3.org/2000/svg" xmlns:xlink="http://www.w3.org/1999/xlink">
<title>Bar knot: One very basic form of Celtic or pseudo-Celtic linear/rectangular knotwork.</title>
<defs><path id="LoopOne" d="M470.354,265.02C452.225,283.148,427.637,293.333,402,293.333C376.363,293.333,351.775,283.148,333.646,265.02L196.939,128.313C178.811,110.185,154.223,100,128.585,100C75.198,100,31.9189,143.279,31.9189,196.667C31.9189,250.054,75.198,293.333,128.585,293.333C154.223,293.333,178.811,283.148,196.939,265.02L333.646,128.313C351.775,110.185,376.363,100,402,100C427.637,100,452.225,110.185,470.354,128.313L607.061,265.02C625.189,283.148,649.777,293.333,675.415,293.333C728.802,293.333,772.081,250.054,772.081,196.667C772.081,143.279,728.802,100,675.415,100C649.777,100,625.189,110.185,607.061,128.313Z"/>
<path id="LoopTwo" d="M675.415,196.667L607.061,265.02C588.932,283.148,564.345,293.333,538.707,293.333C513.07,293.333,488.482,283.148,470.354,265.02L333.646,128.313C315.518,110.185,290.93,100,265.293,100C239.655,100,215.068,110.185,196.939,128.313L60.2319,265.992C42.1035,284.12,31.9189,308.708,31.9189,334.345V361.687H772.081V334.345C772.081,308.708,761.896,284.12,743.768,265.992L607.061,128.313C588.932,110.185,564.345,100,538.707,100C513.07,100,488.482,110.185,470.354,128.313L333.646,265.02C315.518,283.148,290.93,293.333,265.293,293.333C239.655,293.333,215.068,283.148,196.939,265.02L60.2319,127.341C42.1035,109.213,31.9189,84.6252,31.9189,58.9878V31.6465H772.081V58.9878C772.081,84.6252,761.896,109.213,743.768,127.341Z"/></defs>
<g transform="translate(2,394)scale(0.99,-0.99)" style="fill:none;stroke:#000000;stroke-width:38.6667">
<use xlink:href="#LoopOne"/>
<use xlink:href="#LoopOne" style="stroke:#FFFFFF;stroke-width:23.2"/>
<use xlink:href="#LoopTwo"/>
<use xlink:href="#LoopTwo" style="stroke:#FFFFFF;stroke-width:23.2"/>
<path d="M400.313,293.318C375.263,292.881,351.362,282.735,333.646,265.02L304.647,236.02
M387.5,211.166L416.5,182.167
M403.687,100.015C428.737,100.452,452.638,110.598,470.354,128.313L499.353,157.313
M250.793,211.166L279.792,182.167
M524.207,211.166L553.207,182.167
M130.272,100.015C155.322,100.452,179.224,110.598,196.939,128.313L225.939,157.313
M673.728,293.318C648.678,292.881,624.776,282.735,607.061,265.02L578.061,236.02
M660.915,211.166L689.914,182.167
M114.085,211.166L143.085,182.167
M31.9336,198.354C32.8423,250.42,74.832,292.41,126.898,293.318
M772.066,194.979C771.158,142.913,729.168,100.923,677.102,100.015"/>
<path style="stroke:#FFFFFF;stroke-width:23.2" d="M402,293.333C376.363,293.333,351.775,283.148,333.646,265.02L303.68,235.053
M386.533,212.133L417.467,181.2
M402,100C427.637,100,452.225,110.185,470.354,128.313L500.32,158.28
M249.826,212.133L280.759,181.2
M523.24,212.133L554.174,181.2
M128.585,100C154.223,100,178.811,110.185,196.939,128.313L226.906,158.28
M675.415,293.333C649.777,293.333,625.189,283.148,607.061,265.02L577.094,235.053
M659.948,212.133L690.881,181.2
M113.119,212.133L144.052,181.2
M31.9189,196.667C31.9189,250.054,75.198,293.333,128.585,293.333
M772.081,196.667C772.081,143.279,728.802,100,675.415,100"/></g></svg>