<svg xmlns="http://www.w3.org/2000/svg" viewBox="0 0 900 900"><g fill="none"><path d="M-122.3 84.285s.1 1.894-.73 1.875c-.82-.019-17.27-48.094-37.8-45.851 0 0 17.78-7.353 38.53 43.976z" stroke-width=".172" stroke="#000" fill="#FFF" transform="matrix(1.766 0 0 1.766 324.907 255.009)"/><path d="M-118.77 81.262s-.55 1.816-1.32 1.517c-.77-.298.11-51.104-19.95-55.978 0 0 19.22-.864 21.27 54.461z" stroke-width=".172" stroke="#000" fill="#FFF" transform="matrix(1.766 0 0 1.766 324.907 255.009)"/><path d="M-91.284 123.59s1.636.96 1.166 1.64c-.471.67-49.642-12.13-59.102 6.23 0 0 3.68-18.89 57.936-7.87z" stroke-width=".172" stroke="#000" fill="#FFF" transform="matrix(1.766 0 0 1.766 324.907 255.009)"/><path d="M-94.093 133.8s1.856.4 1.622 1.19c-.233.79-50.939 4.13-54.129 24.53 0 0-2.46-19.08 52.507-25.72z" stroke-width=".172" stroke="#000" fill="#FFF" transform="matrix(1.766 0 0 1.766 324.907 255.009)"/><path d="M-98.304 128.28s1.778.66 1.432 1.41-50.998-3.34-57.128 16.37c0 0 .35-19.24 55.696-17.78z" stroke-width=".172" stroke="#000" fill="#FFF" transform="matrix(1.766 0 0 1.766 324.907 255.009)"/><path d="M-109.01 110.07s1.31 1.38.67 1.9-44.38-25.336-58.53-10.29c0 0 8.74-17.147 57.86 8.39z" stroke-width=".172" stroke="#000" fill="#FFF" transform="matrix(1.766 0 0 1.766 324.907 255.009)"/><path d="M-116.55 114.26s1.45 1.22.88 1.81c-.58.59-46.97-20.148-59.32-3.6 0 0 6.74-18.023 58.44 1.79z" stroke-width=".172" stroke="#000" fill="#FFF" transform="matrix(1.766 0 0 1.766 324.907 255.009)"/><path d="M-119.15 118.34s1.6 1 1.11 1.67c-.49.66-49.27-13.56-59.25 4.51 0 0 4.22-18.77 58.14-6.18z" stroke-width=".172" stroke="#000" fill="#FFF" transform="matrix(1.766 0 0 1.766 324.907 255.009)"/><path d="M-108.42 118.95s1.12 1.53.42 1.97c-.7.43-40.77-30.818-56.73-17.71 0 0 10.87-15.884 56.31 15.74z" stroke-width=".172" stroke="#000" fill="#FFF" transform="matrix(1.766 0 0 1.766 324.907 255.009)"/><path d="M-128.2 90s.6 1.8-.2 2-29.4-41.8-48.6-34.2c0 0 15.2-11.8 48.8 32.2z" stroke-width=".172" stroke="#000" fill="#FFF" transform="matrix(1.766 0 0 1.766 324.907 255.009)"/><path d="M-127.5 96.979s.97 1.629.23 1.996c-.74.368-37.72-34.476-54.83-22.914 0 0 12.3-14.8 54.6 20.918z" stroke-width=".172" stroke="#000" fill="#FFF" transform="matrix(1.766 0 0 1.766 324.907 255.009)"/><path d="M-127.62 101.35s1.12 1.53.42 1.97c-.7.43-40.77-30.818-56.73-17.713 0 0 10.87-15.881 56.31 15.743z" stroke-width=".172" stroke="#000" fill="#FFF" transform="matrix(1.766 0 0 1.766 324.907 255.009)"/><path d="M-129.83 103.06c.5 6.05 1.49 12.62 3.23 15.74 0 0-3.6 12.4 5.2 25.6 0 0-.4 7.2 1.2 10.4 0 0 4 8.4 8.8 9.2 3.88.65 12.607 3.72 22.468 5.12 0 0 17.132 14.08 13.932 26.88 0 0-.4 16.4-4 18 0 0 11.6-11.2 2 5.6l-4.4 18.8s25.6-21.6 10-3.2l-10 26s19.6-18.4 12.4-10l-3.2 8.8s43.2-27.2 12.4 2.4c0 0 8-3.6 12.4-.8 0 0 6.8-1.2 6 .4 0 0-20.8 10.4-24.4 28.8 0 0 8.4-10 5.2.8l.4 11.6s4-21.6 3.6 16c0 0 19.2-18 7.6 2.8v16.8s15.2-16.4 8.8-3.6c0 0 10-8.8 6 6.4 0 0-.8 10.4 3.6-.8 0 0 16-30.6 10-4.4 0 0-.8 19.2 4 4.4 0 0 .4 10.4 9.6 17.6 0 0-1.2-50.8 11.6-14.8l4 16.4s2.8-9.2 2.4-14.4l8 8s15.2-22.8 12-9.6c0 0-7.6 16-6 20.8 0 0 16.8-34.8 18-36.4 0 0-2 42.4 8.8 6.4 0 0 5.6 12 2.8 16.4 0 0 8-8 7.2-11.2 0 0 4.6-8.2 7.4 5.4 0 0 1.8 9.4 3.4 6.2 0 0 4 24 5.2 1.2 0 0 1.6-13.6-5.6-25.2 0 0 .8-3.2-2-7.2 0 0 13.6 21.6 6.4-7.2 0 0 11.201 8 12.401 8 0 0-13.601-23.2-4.801-18.4 0 0-5.2-10.4 12.801 1.6 0 0-16.001-16 1.6-6.4 0 0 7.999 6.4.4-3.6 0 0-14.401-16 7.599 2 0 0 11.6 16.4 12.4 19.2 0 0-10-29.2-14.4-32 0 0 8.4-36.4 49.6-20.8 0 0 6.8 17.2 11.2-1.2 0 0 12.8-6.4 24 21.2 0 0 4-13.6 3.2-16.4 0 0 6.8 1.2 6 0 0 0 13.2 4.4 14.4 3.6 0 0 6.8 6.8 7.2 3.2 0 0 9.2 2.8 7.2-.8 0 0 8.8 15.6 9.2 19.2l2.4-14 2 2.8s1.6-7.6.8-8.8 20 6.8 24.8 27.6l2 8.4s6-14.8 4.4-18.8c0 0 5.2.8 5.6 5.2 0 0 4-23.2-.8-29.2 0 0 4.4-.8 5.6 2.8v-7.2s7.2.8 7.2-1.6c0 0 4.4-4 6.4.8 0 0-12.4-35.2 6-16 0 0 7.2 10.8 3.6-8s-7.6-20.4-2.8-20.8c0 0 .8-3.6-1.2-5.2h1.2s4.8 4-.4-18c0 0 6.4 1.6-5.6-27.6 0 0 2.8-2.4-1.2-10.8 0 0 8 4.4 10.8 2.8 0 0-.4-1.6-3.6-5.6 0 0-21.6-54.8-1.2-32.8 0 0 11.85 13.55 5.45-9.25 0 0-9.11-24.009-8.33-28.305l-429.55 23.015z" stroke="#000" fill="#FFF" transform="matrix(1.766 0 0 1.766 324.907 255.009)"/><path d="M299.72 80.245c.62.181 2.83 1.305 4.08 2.955 0 0 6.8 10.8 1.6-7.6 0 0-9.2-28.8-.4-17.6 0 0 6 7.2 2.8-6.4-3.86-16.427-6.4-22.8-6.4-22.8s11.6 4.8-15.2-34.8l8.8 3.6s-19.6-39.6-41.2-44.8l-8-6s38.4-38 25.6-74.8c0 0-6.8-5.2-16.4 4 0 0-6.4 4.8-12.4 3.2 0 0-30.8 1.2-32.8 1.2s-36.8-37.2-102.4-19.6c0 0-5.2 2-9.599.8 0 0-18.401-16-67.201 6.8 0 0-10 2-11.6 2s-4.4 0-12.4 6.4-8.4 7.2-10.4 8.8c0 0-16.4 11.2-21.2 12 0 0-11.6 6.4-16 16.4l-3.6 1.2s-1.6 7.2-2 8.4c0 0-4.8 3.6-5.6 9.2 0 0-8.8 6-8.4 10.4 0 0-1.6 5.2-2.4 10 0 0-7.2 4.8-6.4 7.6 0 0-7.6 14-6.4 20.8 0 0-6.4-.4-9.2 2 0 0-.8 4.8-2.4 5.2 0 0-2.8 1.2-.4 5.2 0 0-1.6 2.8-2 4.4 0 0 .8 2.8-3.6 8.4 0 0-6.4 18.8-4.4 24 0 0 .4 4.8-2.4 6.4 0 0-3.6-.4 4.8 11.6 0 0 .8 1.2-2.4 3.6 0 0-17.2 3.6-19.6 20 0 0-13.6 14.8-13.6 20 0 2.305.27 5.452.97 10.06 0 0-.57 8.34 27.03 9.14l402.72-31.355z" stroke="#000" fill="#cc7226" transform="matrix(1.766 0 0 1.766 324.907 255.009)"/><path d="M120.757 436.201c-44.15-69.58-18.72 30.022-18.72 30.022 15.541 60.75 244.414-5.651 244.414-5.651s298.101-53.686 317.88-60.75l187.902 4.238-9.89-29.669c-114.437-81.942-148.344-40.971-172.362-48.035s-19.779 9.89-25.43 11.302-74.878-42.384-86.181-40.971-56.053-40.531-29.669 15.541c28.256 60.044-103.134 69.227-132.803 49.448l12.715 32.494c32.494 35.32-28.256 5.651-28.256 5.651-60.75-22.605-103.134 22.605-108.786 24.018s-14.128 7.064-15.541-4.238-14.675-40.796-70.64 5.651c-35.32 29.316-59.691-9.536-59.691-9.536l-4.945 20.486z" fill="#cc7226"/><path d="M560.686 299.77c-11.302 1.413-56.106-40.51-29.669 15.541 29.316 62.163-103.134 69.227-132.803 49.448-29.671-19.779 12.715 32.494 12.715 32.494 32.494 35.327-28.258 5.651-28.258 5.651-60.75-22.605-103.134 22.605-108.786 24.018s-14.128 7.071-15.541-4.238c-1.413-11.302-14.444-40.501-70.64 5.651-37.503 30.63-61.331-7.256-61.331-7.256l-5.651 17.86c-44.15-70.294-17.536 32.689-17.536 32.689 15.558 60.75 245.58-7.965 245.58-7.965s298.101-53.693 317.88-60.757l186.366 4.109-9.766-30.568c-114.437-81.942-146.931-39.943-170.949-47.007s-19.779 9.89-25.43 11.302-74.878-42.384-86.181-40.971z" fill="#e87f3a"/><path d="M562.999 302.852c-11.302 1.413-54.993-41.022-29.669 15.541 28.609 63.931-103.136 69.229-132.805 49.45l12.715 32.494c32.494 35.316-28.256 5.651-28.256 5.651-60.75-22.605-103.136 22.605-108.787 24.018s-14.128 7.06-15.541-4.238c-1.413-11.302-14.213-40.207-70.64 5.651-39.687 31.943-62.972-4.977-62.972-4.977l-6.358 15.216c-42.031-68.87-16.335 35.355-16.335 35.355 15.541 60.75 246.728-10.278 246.728-10.278s298.101-53.683 317.88-60.747l184.812 3.981-9.625-31.467c-114.437-81.942-145.518-38.917-169.536-45.981s-19.779 9.89-25.43 11.304c-5.651 1.413-74.878-42.386-86.181-40.973z" fill="#ea8c4d"/><path d="M565.313 305.935c-11.302 1.413-54.976-41.028-29.669 15.541 29.669 66.324-104.081 68.6-132.807 49.448-29.669-19.779 12.715 32.494 12.715 32.494 32.494 35.325-28.256 5.651-28.256 5.651-60.75-22.605-103.134 22.61-108.786 24.023s-14.128 7.064-15.541-4.244c-1.413-11.302-13.981-39.908-70.642 5.656-41.87 33.254-64.613-2.702-64.613-2.702l-7.064 12.592c-38.499-64.994-15.152 38.004-15.152 38.004 15.541 60.75 247.893-12.574 247.893-12.574s298.101-53.692 317.88-60.756l183.275 3.853-9.501-32.365c-114.437-81.944-144.106-37.89-168.123-44.954s-19.779 9.89-25.43 11.302-74.878-42.384-86.181-40.971z" fill="#ec9961"/><path d="M567.626 309.019c-11.302 1.413-54.093-41.42-29.669 15.541 29.669 69.227-103.14 69.227-132.808 49.448l12.715 32.494c32.494 35.315-28.256 5.651-28.256 5.651-60.75-22.605-103.134 22.6-108.786 24.012s-14.128 7.064-15.541-4.238c-1.413-11.297-13.748-39.608-70.64 5.651-44.055 34.578-66.237-.406-66.237-.406l-7.77 9.943c-34.967-61.453-13.969 40.689-13.969 40.689 15.541 60.75 249.041-14.905 249.041-14.905s298.101-53.681 317.88-60.745l181.739 3.724-9.377-33.266c-114.437-81.942-142.693-36.86-166.71-43.924s-19.779 9.89-25.43 11.302-74.878-42.384-86.181-40.971z" fill="#eea575"/><path d="M569.939 312.1c-11.302 1.413-57.165-40.002-29.669 15.541 33.907 68.521-103.141 69.227-132.81 49.448l12.715 32.494c32.494 35.324-28.256 5.651-28.256 5.651-60.75-22.605-103.134 22.608-108.786 24.021s-14.128 7.064-15.541-4.238c-1.413-11.306-13.517-39.32-70.64 5.651-46.237 35.903-67.878 1.854-67.878 1.854l-8.477 7.329c-31.788-58.635-12.786 43.338-12.786 43.338 15.541 60.75 250.207-17.201 250.207-17.201s298.101-53.69 317.88-60.754l180.185 3.596-9.236-34.163c-114.437-81.942-141.28-35.834-165.298-42.898s-19.779 9.89-25.43 11.302-74.878-42.384-86.181-40.971z" fill="#f1b288"/><path d="M572.253 315.182c-11.302 1.413-57.837-39.664-29.669 15.541 36.026 70.642-103.143 69.229-132.812 49.45l12.715 32.494c32.494 35.313-28.256 5.651-28.256 5.651-60.75-22.605-103.134 22.598-108.786 24.011s-14.128 7.064-15.541-4.238c-1.413-11.295-13.286-39.014-70.64 5.651-48.422 37.227-69.519 4.15-69.519 4.15l-9.183 4.68c-28.256-53.326-11.585 46.022-11.585 46.022 15.541 60.75 251.337-19.532 251.337-19.532s298.101-53.679 317.88-60.743l178.649 3.467-9.113-35.062c-114.437-81.942-139.867-34.806-163.885-41.87-24.018-7.066-19.779 9.89-25.43 11.302s-74.878-42.386-86.181-40.973z" fill="#f3bf9c"/><path d="M574.549 318.265c-11.302 1.413-59.761-38.631-29.669 15.541 38.852 69.934-103.127 69.227-132.796 49.448l12.715 32.494c32.494 35.322-28.256 5.651-28.256 5.651-60.75-22.605-103.134 22.607-108.786 24.019s-14.128 7.064-15.541-4.238c-1.413-11.304-13.053-38.725-70.64 5.651-50.605 38.534-71.159 6.428-71.159 6.428l-9.89 2.049c-25.43-50.156-10.402 48.671-10.402 48.671 15.541 60.75 252.503-21.828 252.503-21.828s298.101-53.688 317.88-60.752l177.13 3.34-9.007-35.963c-114.437-81.942-138.454-33.778-162.472-40.842s-19.779 9.89-25.43 11.302-74.878-42.384-86.181-40.971z" fill="#f5ccb0"/><path d="M576.862 321.349c-11.302 1.413-59.761-38.633-29.669 15.541 38.852 69.934-103.127 69.227-132.796 49.448l12.715 32.494c32.494 35.311-28.256 5.651-28.256 5.651-60.752-22.605-103.136 22.596-108.787 24.009s-14.128 7.064-15.541-4.238-12.819-38.419-70.64 5.651c-52.788 39.859-72.782 8.706-72.782 8.706l-10.596-.583c-24.035-46.615-9.219 51.355-9.219 51.355 15.541 60.75 253.651-24.159 253.651-24.159s298.101-53.678 317.88-60.742l175.576 3.211-8.848-36.862c-114.454-81.942-137.059-32.75-161.077-39.814s-19.779 9.89-25.43 11.302-74.878-42.384-86.181-40.971z" fill="#f8d8c4"/><path d="M579.176 324.43c-11.302 1.413-59.073-39.006-29.669 15.541 38.852 72.053-103.129 69.227-132.798 49.448l12.715 32.494c32.494 35.32-28.256 5.651-28.256 5.651-60.75-22.605-103.134 22.605-108.786 24.018-5.653 1.413-14.13 7.064-15.543-4.238s-12.588-38.131-70.64 5.651c-54.97 41.165-74.423 10.985-74.423 10.985l-11.302-3.214c-22.958-42.384-8.035 54.004-8.035 54.004 15.541 60.75 254.816-26.455 254.816-26.455s298.101-53.686 317.88-60.75l174.039 3.083-8.742-37.761c-114.437-81.944-135.629-31.724-159.646-38.788s-19.779 9.89-25.43 11.302-74.878-42.384-86.181-40.971z" fill="#fae5d7"/><path d="M581.489 327.512c-11.302 1.413-57.165-39.989-29.669 15.541 37.439 75.587-103.131 69.229-132.8 49.45l12.715 32.494c32.494 35.327-28.256 5.651-28.256 5.651-60.75-22.605-103.134 22.612-108.786 24.025s-14.128 7.064-15.541-4.238-12.357-37.842-70.64 5.651c-57.157 42.472-76.065 13.245-76.065 13.245l-12.009-5.828c-22.605-40.978-6.834 56.671-6.834 56.671 15.541 60.75 255.964-28.768 255.964-28.768s298.101-53.686 317.88-60.757c19.779-7.064 172.485 2.956 172.485 2.956l-8.6-38.663c-114.437-81.942-134.216-30.695-158.234-37.759-24.018-7.066-19.779 9.89-25.43 11.302s-74.878-42.386-86.181-40.973z" fill="#fcf2eb"/><path d="M120.404 466.223c-22.605-38.852-5.651 59.338-5.651 59.338 15.541 60.75 257.13-31.082 257.13-31.082s298.101-53.686 317.88-60.75l170.949 2.826-8.477-39.558c-114.437-81.942-132.803-29.669-156.821-36.733s-19.779 9.89-25.43 11.302-74.878-42.384-86.181-40.971-55.841-40.63-29.669 15.541c39.258 84.251-107.3 66.449-132.803 49.448-29.669-19.779 12.715 32.494 12.715 32.494 32.494 35.32-28.256 5.651-28.256 5.651-60.75-22.605-103.134 22.605-108.786 24.018s-14.128 7.064-15.541-4.238-12.124-37.538-70.64 5.651c-59.338 43.797-77.704 15.541-77.704 15.541l-12.715-8.477z" fill="#FFF"/><path d="M193.87 519.203s-12.715 20.486 24.018 43.797c0 0 2.472 2.472-29.316-4.945 0 0-10.949-3.532-13.775-21.898 0 0-8.477-7.77-16.954-17.66l36.026.706z"/><path d="M441.11 435.141s31.255 47.364 30.199 55.806c-2.296 18.366-2.649 35.32 3.002 42.384 5.653 7.064 21.194 65.695 21.194 65.695s-.706 2.119 21.19-64.989c0 0 20.486-28.256-14.834-60.75 0 0-62.163-50.861-60.75-38.146z" fill="#CCC"/><path d="M229.19 566.531s19.779 12.715-5.651 67.814l11.302-4.238s-1.413 19.779-7.064 24.018l12.715-5.651s8.477 14.128 1.413 22.605c0 0 29.669 14.128 28.256 25.43 0 0 11.302-14.128 4.238-25.43s-19.779-4.238-18.366-36.733l-15.541 5.651s9.89-15.541 9.89-26.843l-14.128 4.238s27.318-46.94 8.477-49.448c-10.596-1.413-15.541-1.413-15.541-1.413z"/><path d="M286.408 596.2s4.945-7.77 0-6.358-60.044 27.55-70.64 44.503c0 0 60.75-43.09 70.64-38.146z" fill="#CCC"/><path d="M304.775 610.328s4.945-7.77 0-6.358-60.044 27.55-70.64 44.503c0 0 60.75-43.09 70.64-38.146z" fill="#CCC"/><path d="M328.086 583.485s4.945-7.77 0-6.358-60.044 27.55-70.64 44.503c0 0 60.75-43.09 70.64-38.146z" fill="#CCC"/><path d="M287.115 660.483s0-10.596-4.945-9.183-68.521 32.494-79.117 49.448c0 0 74.172-45.21 84.062-40.265z" fill="#CCC"/><path d="M289.234 641.41s2.119-8.477-2.826-7.064c-3.532 0-50.154 20.486-60.75 37.439 0 0 52.274-38.146 63.576-30.375z" fill="#CCC"/><path d="M263.803 725.471l-17.66 13.422s18.366-13.422 24.724-11.302c0 0-12.009 19.779-13.422 28.962 0 0 18.366-22.605 28.256-21.898 0 0 13.422.706 13.422 19.779 0 0 9.89-18.366 15.541-17.66 0 0 2.119 11.302 0 23.311 0 0 7.064-13.422 14.128-10.596 0 0 11.302-3.532 9.89 16.954 0 0 0 18.366-1.413 23.311 0 0 9.89-46.622 14.128-47.329 0 0 14.128-2.119 22.605 13.422 0 0-7.064-13.422 1.413-9.89 0 0 19.073 2.826 24.724 14.834 0 0-12.009-21.192-2.119-15.541l14.128 11.302s14.834 37.439 18.366 40.265c0 0-13.422-38.146-10.596-38.146 0 0-3.532-21.192 5.651 4.945 0 0-5.651-24.724 4.238-23.311s17.66 19.073 32.494 14.834c0 0 16.955 9.89 20.487-112.318l-218.984 82.649z" fill="#CCC"/><path d="M272.28 561.587s26.137-10.596 96.777 0c0 0 12.715.706 24.724-14.834s59.338-28.256 70.64-24.724l16.955 11.302 1.413 2.119s21.897 18.366 22.603 31.788-25.429 98.19-42.384 126.446c-16.954 28.256-33.907 50.154-67.814 45.916 0 0-36.733-7.064-81.942 0 0 0-51.567-2.826-56.512-16.954l19.779-40.971s7.77-14.834 5.651-40.265-1.413-74.878-9.89-79.823z"/><path d="M311.132 565.119c14.834 32.494-37.439 147.638-37.439 147.638-3.532 2.826 22.358 13.51 40.265 9.183 19.331-4.662 90.419 2.826 90.419 2.826 41.678-27.55 64.282-105.96 64.282-105.96s18.368-42.384-12.715-48.035c-31.082-5.651-144.812-5.651-144.812-5.651z" fill="#e5668c"/><path d="M307.545 619.688c5.874-22.587 8.671-43.426 3.587-54.569 0 0 110.198 11.302 129.978-25.43 7.49-13.898 33.556 40.265 32.848 57.218 0 0-111.258 25.43-137.395 5.651l-29.017 17.13z" fill="#b23259"/><path d="M315.371 648.474s3.532 12.715-.706 19.779c0 0-2.826 1.413-4.945 2.119 0 0 2.119 6.358 12.715 9.183 0 0 3.532 7.77 7.77 8.477s12.715 10.596 19.779 8.477l26.843-9.183s9.89-5.651 25.43.706c0 0 4.194-1.413 4.945-8.477.883-8.3 6.358-14.834 9.89-18.366s20.486-26.137 18.366-26.843l-120.088 14.128z" fill="#a5264c"/><path d="M-9.8 174.4s-2.8 22.4.4 30.8 2.4 10.4 1.6 14.4 3.6 14 9.2 20l12 1.6s15.2-3.6 24.4-.8c0 0 8.994 1.34 12.4-13.6 0 0 4.8-6.4 12-9.2s14.4-44.4 10.4-52.4-18.4-12.4-34.4 3.2-18-1.2-48 6z" stroke="#000" fill="#ff727f" transform="matrix(1.766 0 0 1.766 324.907 255.009)"/><path d="M-8.2 249.2s-.8-2-5.2-2.4c0 0-22.4-3.6-30.8-16 0 0-6.8-5.6-2.4 6 0 0 10.4 20.4 17.2 23.2 0 0 16.4 4 21.2-10.8z" stroke-width=".5" stroke="#000" fill="#FFC" transform="matrix(1.766 0 0 1.766 324.907 255.009)"/><path d="M451.603 582.125c1.164-13.969 4.613-29.174 1.515-35.373-11.384-22.764-41.358-13.245-60.75 5.651-28.256 27.55-31.788-2.119-84.768 10.596 0 0-3.082 24.653-1.598 42.349 0 0 65.881-20.45 67.293-10.561 0 0 2.826-5.651 19.073-5.651s56.41-2.066 59.235-7.011z" fill="#cc3f4c"/><path d="M28.6 175.2s4.8 4.8 1.2 14.4c0 0-14.4 16-12.4 30" stroke-width="2" stroke="#a51926" transform="matrix(1.766 0 0 1.766 324.907 255.009)"/><path d="M-19.4 260s-4.4-12.8 4.4-6l3.6 3.6c-1.2 1.6-6.8 5.6-8 2.4z" stroke-width=".5" stroke="#000" fill="#FFC" transform="matrix(1.766 0 0 1.766 324.907 255.009)"/><path d="M-14.36 261.2s-3.52-10.24 3.52-4.8l2.88 2.88c-4.56 1.28 0 3.84-6.4 1.92z" stroke-width=".5" stroke="#000" fill="#FFC" transform="matrix(1.766 0 0 1.766 324.907 255.009)"/><path d="M-9.56 261.2s-3.52-10.24 3.52-4.8l2.88 2.88c-3.36 1.28 0 3.84-6.4 1.92z" stroke-width=".5" stroke="#000" fill="#FFC" transform="matrix(1.766 0 0 1.766 324.907 255.009)"/><path d="M-2.96 261.4s-3.52-10.24 3.52-4.8c0 0 4.383 2.33 2.881 2.88-2.961 1.08 0 3.84-6.401 1.92z" stroke-width=".5" stroke="#000" fill="#FFC" transform="matrix(1.766 0 0 1.766 324.907 255.009)"/><path d="M3.52 261.32s-3.52-10.24 3.521-4.8l2.88 2.88c-.96 1.28 0 3.84-6.401 1.92z" stroke-width=".5" stroke="#000" fill="#FFC" transform="matrix(1.766 0 0 1.766 324.907 255.009)"/><path d="M10.2 262s-4.8-12.4 4.4-6l3.6 3.6c-1.2 1.6 0 4.8-8 2.4z" stroke-width=".5" stroke="#000" fill="#FFC" transform="matrix(1.766 0 0 1.766 324.907 255.009)"/><path d="M-18.2 244.8s13.2-2.8 19.2.4c0 0 6 1.2 7.2.8l4.4-.8" stroke-width="2" stroke="#a5264c" transform="matrix(1.766 0 0 1.766 324.907 255.009)"/><path d="M15.8 253.6s12-13.6 24-9.2c7.016 2.57 6-.8 6.8-3.6s1-7 6-10" stroke-width="2" stroke="#a5264c" transform="matrix(1.766 0 0 1.766 324.907 255.009)"/><path d="M33 237.6s-4-10.8-6.8 2-6 16.4-7.6 19.2c0 0 0 5.2 8.4 4.8 0 0 10.8-.4 11.2-3.2s-1.2-14.4-5.2-22.8z" stroke-width=".5" stroke="#000" fill="#FFC" transform="matrix(1.766 0 0 1.766 324.907 255.009)"/><path d="M47 244.8s3.6-2.4 6-1.2" stroke-width="2" stroke="#a5264c" transform="matrix(1.766 0 0 1.766 324.907 255.009)"/><path d="M53.5 228.4s2.9-4.9 7.7-5.7" stroke-width="2" stroke="#a5264c" transform="matrix(1.766 0 0 1.766 324.907 255.009)"/><path d="M279.344 723.352s31.788 5.651 39.558 2.826l.706 3.532-36.733-2.119s-20.486-9.89-3.532-4.238z" fill="#b2b2b2"/><path d="M-11.8 172l19.6.8s7.2 30.8 3.6 38.4c0 0-1.2 2.8-4-2.8 0 0-18.4-32.8-21.6-34.8s1.2-1.6 2.4-1.6z" stroke-width=".5" stroke="#000" fill="#FFC" transform="matrix(1.766 0 0 1.766 324.907 255.009)"/><path d="M-88.9 169.3s8.9 1.7 21.5 4.3c0 0 4.8 22.4 8 27.2s-.4 4.8-4 2-18.4-16.8-20.4-21.2l-5.1-12.3z" stroke-width=".5" stroke="#000" fill="#FFC" transform="matrix(1.766 0 0 1.766 324.907 255.009)"/><path d="M-67.039 173.82s5.8 1.55 6.809 3.76c1.008 2.22-1.202 5.51-1.202 5.51s-1 3.31-2.202 1.15c-1.202-2.17-4.074-9.83-3.405-10.42z" stroke-width=".5" stroke="#000" fill="#FFC" transform="matrix(1.766 0 0 1.766 324.907 255.009)"/><path d="M206.585 561.587s6.358 9.183 12.715 9.183 7.032-.724 12.009.353c8.124 1.766 7.417-1.766 19.073.353 4.662.848 9.183-.706 14.128 1.413s10.596.706 12.715-2.826l10.596-10.949s-22.605 3.179-27.55 4.592c0 0-39.558 2.119-53.686-2.119z"/><path d="M-22.4 173.8s-6.45 3.5-6.85 5.9l5.25 6.1s2.75 4.6 3.35 2.2-.95-13.8-1.75-14.2z" stroke-width=".5" stroke="#000" fill="#FFC" transform="matrix(1.766 0 0 1.766 324.907 255.009)"/><path d="M-59.885 179.26s7.007 11.19 7.224-.02c0 0 .557-1.26-1.203-1.28-6.075-.07-4.554-4.18-6.021 1.3z" stroke-width=".5" stroke="#000" fill="#FFC" transform="matrix(1.766 0 0 1.766 324.907 255.009)"/><path d="M-52.707 179.51s7.921 11.19 7.285-.09c0 0 .007-.33-1.746-.48-4.747-.42-4.402-4.94-5.539.57z" stroke-width=".5" stroke="#000" fill="#FFC" transform="matrix(1.766 0 0 1.766 324.907 255.009)"/><path d="M-45.494 179.52s7.96 10.63 7.291.96c0 0 .119-1.23-1.535-1.53-3.892-.71-4.103-3.95-5.756.57z" stroke-width=".5" stroke="#000" fill="#FFC" transform="matrix(1.766 0 0 1.766 324.907 255.009)"/><path d="M-38.618 179.6s7.9 11.56 8.248 1.78c0 0 1.644-1.38-.102-1.6-5.818-.74-5.02-5.19-8.146-.18z" stroke-width=".5" stroke="#000" fill="#FFC" transform="matrix(1.766 0 0 1.766 324.907 255.009)"/><path d="M192.824 578.417l-13.524-2.702c-4.592-8.83-8.3-19.691-8.3-19.691s11.214 1.766 33.289 6.711c0 0 1.547 5.863 4.147 16.088l-15.611-.406z" fill="#e5e5b2"/><path d="M307.734 570.187c-2.942-4.433-5.268-7.523-6.416-8.247-5.321-3.32 1.996-2.667 3.989-2.667l32.59 1.342s.925 3.956 2.133 9.943c0 0-17.815-3.55-32.297-.371z" fill="#e5e5b2"/><path d="M402.399 326.216c48.955 6.993 94.024-55.947 97.132-73.044 3.106-17.095-14.764-38.075-14.764-38.075 2.331-5.439-6.216-30.305-15.541-46.622s-37.406-14.598-68.381-16.318c-27.973-1.554-60.609 39.629-62.94 42.737s8.547 70.712 10.879 80.814l-2.331 56.724c60.468-16.071 6.993-13.21 55.947-6.216z" fill="#cc7226"/><path d="M339.19 196.039c-2.289 3.052 8.392 69.427 10.681 79.345l-2.289 55.693c57.699-15.682 6.866-12.97 54.93-6.103 48.065 6.866 92.314-54.93 95.366-71.715 3.052-16.784-14.495-37.383-14.495-37.383 2.289-5.34-6.103-29.754-15.258-45.775s-36.724-14.331-67.138-16.021c-27.465-1.526-59.507 38.909-61.796 41.96z" fill="#ea8e51"/><path d="M340.476 197.183c-2.246 2.995 8.237 68.141 10.483 77.875l-2.246 54.661c55.459-16.177 6.739-12.729 53.912-5.99 47.175 6.739 90.605-53.912 93.6-70.387 2.995-16.473-14.227-36.69-14.227-36.69 2.246-5.241-5.99-29.203-14.976-44.927s-36.044-14.066-65.895-15.724c-26.956-1.498-58.405 38.188-60.652 41.183z" fill="#efaa7c"/><path d="M341.762 198.327c-2.204 2.939 8.081 66.855 10.285 76.406l-2.204 53.63c51.984-15.965 6.612-12.489 52.895-5.877 46.285 6.612 88.895-52.895 91.834-69.058 2.939-16.164-13.958-36-13.958-36 2.204-5.143-5.877-28.652-14.693-44.079s-35.364-13.801-64.651-15.428c-26.448-1.469-57.303 37.467-59.507 40.406z" fill="#f4c6a8"/><path d="M343.047 199.472c-2.162 2.882 7.926 65.57 10.087 74.937l-2.162 52.599c49.215-15.753 6.485-12.249 51.878-5.764 45.395 6.485 87.186-51.878 90.068-67.731 2.882-15.852-13.69-35.306-13.69-35.306 2.162-5.044-5.764-28.101-14.411-43.232s-34.684-13.536-63.408-15.131c-25.939-1.441-56.201 36.747-58.363 39.629z" fill="#f9e2d3"/><path d="M402.964 319.998c44.503 6.358 85.476-50.861 88.302-66.402l-13.422-34.614c2.119-4.945-5.653-27.55-14.13-42.384s-34.003-13.27-62.163-14.834c-25.43-1.413-55.099 36.026-57.218 38.852s7.77 64.282 9.89 73.466l-2.119 51.567c45.033-15.188 6.358-12.009 50.861-5.651z" fill="#FFF"/><path d="M484.908 259.954s-49.097 13.422-69.582 10.596c0 0-27.903-11.656-43.444 26.843 0 0-6.358 12.715-9.89 16.247l122.915-53.686z" fill="#CCC"/><path d="M491.619 256.069s-51.216 21.545-68.876 20.839c0 0-28.962-8.124-43.797 17.66 0 0-14.834 16.247-20.486 19.073 0 0-.706 2.826 10.596-4.238l18.366 9.183s26.137 16.954 43.09-11.302c0 0 7.064-19.779 7.064-23.311s37.439-13.422 40.267-14.128c2.826-.706 14.481-8.124 13.775-13.775z"/><path d="M407.909 319.493c-12.136 0-26.923-6.826-26.923-17.861 0-11.034 14.787-22.098 26.923-22.098 12.139 0 21.98 8.945 21.98 19.979 0 11.036-9.84 19.981-21.98 19.981z" fill="#99cc32"/><path d="M401.511 290.029c-8.558 1.275-17.545 3.929-17.418 3.548 2.72-8.157 13.953-14.043 23.816-14.043 7.587 0 14.276 3.493 18.225 8.809 0 0-9.388-.583-24.623 1.687z" fill="#659900"/><path d="M422.743 289.623s-7.77-5.651-7.77-1.766c0 0 6.358 7.77 7.77 1.766z" fill="#FFF"/><path d="M405.083 303.973c-4.413 0-7.991-3.578-7.991-7.993 0-4.413 3.578-7.991 7.991-7.991 4.415 0 7.993 3.578 7.993 7.991 0 4.415-3.578 7.993-7.993 7.993z"/><path d="M221.419 280.439s-5.651-37.439-1.413-45.21c0 0 19.073-17.66 18.366-24.018 0 0-.706-31.788-2.826-33.201s-15.541-12.009-26.137-.706c0 0-18.366 31.788-16.954 43.09v3.532s-13.422-.706-16.247 2.826c0 0-2.119 9.183-4.238 9.89 0 0-4.945 4.238-1.413 9.183 0 0-3.532 4.238-2.826 11.302l13.422 7.064s3.532 25.43 22.605 34.614c8.54 4.113 14.128-7.77 17.66-18.366z" fill="#cc7226"/><path d="M219.653 277.19s-5.086-33.695-1.272-40.689c0 0 17.166-15.894 16.53-21.616 0 0-.636-28.609-2.543-29.881s-13.987-10.808-23.523-.636c0 0-16.53 28.609-15.258 38.781v3.179s-12.079-.636-14.622 2.543c0 0-1.907 8.265-3.815 8.901 0 0-4.45 3.815-1.272 8.265 0 0-3.179 3.815-2.543 10.172l12.079 6.358s3.179 22.887 20.344 31.152c7.686 3.7 12.715-6.993 15.894-16.53z" fill="#FFF"/><path d="M234.753 179.76c-1.925-1.519-15.152-11.709-25.483-.689 0 0-17.907 30.993-16.53 42.013v3.444s-13.086-.689-15.841 2.755c0 0-2.066 8.954-4.132 9.642 0 0-4.821 4.132-1.377 8.954 0 0-3.444 4.132-2.755 11.02l13.086 6.887s3.444 24.795 22.04 33.748c8.325 4.009 13.775-7.576 17.218-17.907 0 0-5.51-36.503-1.377-44.079 0 0 18.596-17.218 17.907-23.417 0 0-.689-30.993-2.755-32.371z" fill="#eb955c"/><path d="M233.958 181.508c-1.731-1.625-14.764-11.408-24.83-.671 0 0-17.448 30.199-16.106 40.936v3.355s-12.751-.671-15.435 2.684c0 0-2.013 8.724-4.026 9.395 0 0-4.698 4.026-1.342 8.724 0 0-3.355 4.026-2.684 10.737l12.751 6.711s3.355 24.159 21.475 32.883c8.113 3.906 13.422-7.382 16.777-17.448 0 0-5.369-35.567-1.342-42.949 0 0 18.119-16.777 17.448-22.817 0 0-.671-30.199-2.684-31.541z" fill="#f2b892"/><path d="M233.163 183.256c-1.536-1.731-14.375-11.108-24.177-.653 0 0-16.989 29.404-15.682 39.859v3.267s-12.415-.653-15.029 2.614c0 0-1.96 8.494-3.921 9.148 0 0-4.574 3.921-1.307 8.494 0 0-3.267 3.921-2.614 10.455l12.415 6.534s3.267 23.523 20.909 32.018c7.899 3.804 13.068-7.188 16.335-16.989 0 0-5.227-34.631-1.307-41.819 0 0 17.642-16.335 16.989-22.216 0 0-.653-29.404-2.614-30.711z" fill="#f8dcc8"/><path d="M219.653 277.013s-5.086-33.519-1.272-40.512c0 0 17.166-15.894 16.53-21.616 0 0-.636-28.609-2.543-29.881-1.342-1.837-13.987-10.808-23.523-.636 0 0-16.53 28.609-15.258 38.781v3.179s-12.079-.636-14.622 2.543c0 0-1.907 8.265-3.815 8.901 0 0-4.45 3.815-1.272 8.265 0 0-3.179 3.815-2.543 10.172l12.079 6.358s3.179 22.887 20.344 31.152c7.686 3.7 12.715-7.17 15.894-16.706z" fill="#FFF"/><path d="M214.179 265.958s-38.146-18.013-39.735-19.426c0 0 16.071 14.481 17.483 14.481l22.252 4.945z" fill="#CCC"/><path d="M183.98 255.009s32.494 6.358 32.494 14.128c0 5.143-.429 28.841-9.89 26.137-14.834-4.238-8.477-29.669-22.605-40.265z"/><path d="M198.815 261.72s15.855 2.603 17.66 7.417c1.06 2.826 2.23 17.498-7.417 19.426-8.039 1.609-11.977-16.441-10.243-26.843z" fill="#99cc32"/><path d="M350.682 336.861c-.878-3.076 1.438-2.845 4.6-3.795 3.532-1.06 25.077-7.77 26.49-12.362l24.724 3.179c3.179 1.413 10.949 6.004 10.949 6.004 8.477 2.119 20.132 2.826 20.132 2.826 4.238 1.766 10.243 6.711 10.243 6.711 25.784 18.013 47.684 5.298 47.684 5.298 35.318-11.656 24.722-42.031 24.722-42.031-5.298-15.894.353-21.898.353-21.898.353-6.711 13.068 4.592 13.068 4.592 4.592 7.417 6.004 16.247 6.004 16.247 14.128 19.779 8.124-11.656 8.124-11.656.353-1.766-4.592-8.124-4.592-10.243l-3.179-8.124c-5.298-6.004-1.06-18.366-1.06-18.366 3.179-24.371-.706-21.192-.706-21.192-2.119-3.179-18.366 14.481-18.366 14.481-3.885 6.004-14.481 8.83-14.481 8.83-4.943 3.179-10.947.706-10.947.706-4.592-.706-14.481 11.656-14.481 11.656 4.945-.353 9.183 7.417 13.422 7.77s7.417-4.238 10.241-5.298c2.826-1.06 7.77 9.183 7.77 9.183.706 4.592-9.183 13.068-9.183 13.068-.706 8.124-3.53 5.298-3.53 5.298-5.298-1.06-7.417 5.651-9.183 13.775l-9.183 8.83c-2.826 13.068-4.947 7.77-4.947 7.77-.353-9.89-10.949.353-10.949.353-2.119 3.532-10.243-.353-10.243-.353-12.009-3.532-7.77-7.064-7.77-7.064 3.179-3.885 22.958 0 22.958 0 3.885-2.826-10.243-9.89-10.243-9.89-1.06-3.179.706-10.949.706-10.949 2.119-5.651 14.128-15.541 14.128-15.541 16.602-2.119 11.657-4.945 11.657-4.945-10.949-9.183-21.194 4.238-21.194 4.238-3.885 10.949-34.614 37.439-34.614 37.439-8.477 6.004-3.885-6.004-10.949 0l-43.444-9.89c-20.418-2.107-25.243 25.694-31.475 20.184 0 0 9.568 15.046 6.743 5.157z"/><path d="M694.707 43.089s-45.21 14.128-50.154 47.329c0 0-4.238 40.265 31.788 71.346 0 0 .706 11.302 4.238 16.954 0 0-2.826 8.477 30.375-4.945l48.035-14.834s11.302-4.238 20.486-19.779 36.026-48.742 29.669-93.245c0 0 2.119-19.779-8.477-20.486 0 0-14.834-2.826-27.55 10.596 0 0-12.009 5.651-16.247 4.945l-62.163 2.119z"/><path d="M791.166 41.341s3.709-15.77-4.839-7.223c0 0-12.433 10.102-25.642 10.102 0 0-25.642 3.885-33.413 27.196 0 0-6.993 47.399 6.993 57.501 0 0 8.547 13.21 20.98 1.554s39.806-65.042 35.92-89.13z"/><path d="M790.513 41.976s3.691-15.453-4.698-7.046c0 0-12.221 9.907-25.183 9.907 0 0-25.183 3.815-32.812 26.702 0 0-6.87 46.541 6.87 56.459 0 0 8.389 12.97 20.592 1.526 12.221-11.444 39.046-63.901 35.232-87.548z" fill="#323232"/><path d="M789.842 42.612s3.673-15.117-4.556-6.887c0 0-11.973 9.731-24.706 9.731 0 0-24.724 3.744-32.212 26.207 0 0-6.728 45.683 6.746 55.417 0 0 8.23 12.729 20.221 1.498 11.973-11.232 38.252-62.76 34.508-85.965z" fill="#666"/><path d="M789.188 43.23s3.656-14.781-4.433-6.693c0 0-11.744 9.554-24.247 9.554 0 0-24.23 3.673-31.576 25.713 0 0-6.623 44.807 6.605 54.357 0 0 8.088 12.489 19.832 1.469 11.762-11.02 37.492-61.619 33.819-84.401z" fill="#999"/><path d="M788.535 43.866s3.638-14.446-4.291-6.534c0 0-11.532 9.377-23.788 9.377 0 0-23.77 3.603-30.976 25.218 0 0-6.481 43.949 6.481 53.316 0 0 7.929 12.249 19.461 1.441 11.514-10.808 36.715-60.478 33.112-82.818z" fill="#CCC"/><path d="M787.864 44.502s3.62-14.128-4.15-6.358c0 0-11.302 9.183-23.311 9.183 0 0-23.311 3.532-30.375 24.724 0 0-6.358 43.09 6.358 52.274 0 0 7.77 12.009 19.073 1.413s35.938-59.338 32.406-81.236z" fill="#FFF"/><path d="M414.267 403.353s-36.026-33.907-50.154-35.32c0 0-60.75-7.064-86.887 24.724 0 0 31.082-36.026 79.823-26.137 0 0-38.146-7.77-60.044-2.119l-46.622 24.724-4.945 8.477s7.064-26.137 39.558-36.733c0 0 40.265-8.477 59.338 0 0 0-38.146-12.009-55.806-8.477 0 0-53.686-4.238-76.291 42.384 0 0 7.064-25.43 33.201-38.146 0 0 24.018-15.541 60.044-10.596 0 0 25.43 5.651 34.614 9.89s7.064-.706-7.77-9.183c0 0-9.89-17.66-34.614-16.954 0 0-75.585 6.358-93.951 27.55 0 0 24.018-19.779 42.384-24.724 0 0 39.558-14.128 54.393-12.715 0 0 43.797 1.766 57.218-5.298 0 0-19.779 8.83-14.128 14.481s17.66 19.073 17.66 21.192 42.737 41.148 49.095 48.918l3.885 4.062z" fill="#992600"/><path d="M658.681 745.957s-27.373-64.459-49.448-81.236c0 0 45.916 28.256 52.097 60.044 0 0 0 17.66-2.649 21.192z" fill="#CCC"/><path d="M741.683 759.202s-46.799-97.13-79.47-139.514c0 0 76.821 66.225 85.651 113.024l.883 9.713-5.298-4.415s-.883 15.894-1.766 21.192z" fill="#CCC"/><path d="M841.462 673.551s-110.375-105.077-113.024-109.492c0 0 106.843 116.556 112.141 129.801 0 0-3.532-15.894.883-20.309z" fill="#CCC"/><path d="M508.571 750.372s34.437-91.832 67.991-52.097c0 0 26.49 17.66 25.607 22.958 0 0-7.064-11.479-38.852-10.596 0 0-33.554-5.298-54.746 39.735z" fill="#CCC"/><path d="M844.994 525.207s-79.47-50.331-92.715-52.98c-20.856-4.168 87.417 51.214 96.247 69.757 0 0 3.532-4.415-3.532-16.777z" fill="#CCC"/><path d="M578.858 713.463s36.026-3.532 48.035-15.541l7.77 6.358 31.082-67.814 6.358 9.183s25.43-26.137 24.018-40.265l22.605 10.596s-1.413-20.486 11.302-8.477c0 0-4.238-27.55 10.596-13.422 0 0-18.614-53.263 21.192-7.77 9.89 11.302 2.119-.706 2.119-.706s-45.916-84.768-7.77-59.338c0 0 3.532-40.265 1.413-48.035s-5.651-47.329-14.128-56.512.706-12.009 10.596-2.826c0 0-19.779-42.384 3.532-21.192 0 0-6.358-26.843-14.128-31.788 0 0-9.89-30.375 16.954-11.302 0 0-7.77-21.898-13.422-27.55 0 0-20.486-48.742-7.77-40.265l7.77 6.358s-12.009-24.724-.706-16.954l11.302 7.064s-37.439-58.631-1.413-27.55c0 0-14.411-24.579-20.486-36.733 0 0-33.201-36.026-7.77-24.724l8.477 2.826s-15.541-17.66-29.669-20.486 4.238-14.128 15.541-10.596l38.852 16.954s22.605 33.201 29.669 33.907c0 0-35.32-13.422-24.724.706 0 0 25.43 24.724 12.715 24.018 0 0-10.596 12.715-2.119 28.256 0 0-32.6-32.479-6.358 12.715l12.009 28.962s-43.09-43.797-23.311-4.945c0 0 30.375 41.678 33.907 42.384l11.302 16.247-7.77-3.532 9.183 15.541s-19.779-21.192-9.183 2.119l9.89 25.43s-36.026-38.852-12.009 13.422c0 0-28.962-9.183-13.422 21.192 0 0-2.826 28.256-2.119 37.439s2.826 59.338-4.945 73.466 10.596 48.035 14.128 55.099 9.89 26.137-5.651 9.89-7.77-6.358-4.238 9.183 14.128 43.09 12.715 52.98c0 0-2.119 2.119-7.77-4.238 0 0-26.137-40.265-23.311-14.834 0 0-2.119 14.128-7.77 29.669 0 0-5.651 19.073-5.651 3.532 0 0-5.651-29.669-10.596-16.247s-11.302 24.018-16.247 28.256-14.128-36.026-16.247-17.66c0 0-21.192-21.898-29.669 7.064l-20.486 28.962s-.706-21.898-2.826-11.302c0 0-52.98 10.596-71.346 2.826z"/><path d="M518.107 83.354s-20.484-14.128-27.548-13.422 48.74-15.541 121.499 33.201c0 0 8.477 4.945 14.834 4.238 0 0 5.651 4.238.706 10.596 0 0-15.541 16.954 4.238 36.733 0 0 32.494 12.009 22.605-3.532 0 0 19.073 7.064 23.311 14.128h2.119l-21.898-21.898s-9.183-3.532-14.128-18.366-9.183-32.494-1.413-38.146c0 0-7.064 7.77-5.651.706s7.77-13.422 10.596-14.128 31.788-28.609 43.797-29.316c0 0-16.247 2.472-21.545.706s-52.274-21.898-62.87-24.018c0 0-29.669-11.656-8.477-8.124 0 0 63.223 6.711 95.364 30.022 0 0-12.715-14.834-45.21-27.196 0 0-39.205-22.252-101.368-13.422 0 0-31.435 5.651-45.21 8.83 0 0-4.59-1.06-5.649-1.766s-21.9-16.6-70.642-4.238c0 0-30.022 8.124-45.21 16.6 0 0-26.843 2.119-33.201 7.77 0 0-32.848 25.784-36.38 27.196s-23.664 14.834-25.077 15.541c0 0 43.444-11.656 47.682-15.894s34.967-8.83 39.205-6.358 19.073 1.413 2.119 2.472c0 0 133.51 26.137 134.922 29.669l8.477 1.413z"/><path d="M644.2 67.107s-18.013-13.068-21.545-13.068-25.43-18.013-32.848-17.307-28.962-16.954-77.351-2.472c0 0-1.06-3.532 5.298-4.945 0 0 11.302-3.885 12.009-4.945 0 0 35.673-7.417 48.388-1.06 0 0 16.247 4.592 27.196 15.541 0 0 19.779 5.651 25.43 3.885 0 0 15.541 3.885 16.247 7.064 0 0 10.243 5.298 7.064 9.89 0 0 .706 2.826-9.89 7.417z" fill="#cc7226"/><path d="M622.178 63.38c1.43 1.113 3.232 1.289 4.291 2.72.424.547-.088 1.13-.653 1.307-1.837.547-3.709-.459-5.722.583-.706.371-1.837.053-2.826-.212-2.879-.777-6.11-.83-9.095.389-3.497-1.996-7.664-.954-11.338-2.737-.106-.035-.494.565-.636.53-5.369-2.031-11.991-1.536-16.283-5.563-4.291-.724-8.441-1.536-12.733-2.737-3.214-.901-5.704-2.649-8.565-4.115-2.437-1.254-4.998-2.172-7.717-2.843-3.285-.795-6.517-.6-9.854-1.519-.177-.035-.512.565-.653.53-.565-.194-1.095-1.219-1.395-1.13-2.967.918-5.598-.795-8.53-.194-2.084-2.155-5.121-1.731-7.859-2.508-5.245-1.501-10.808.742-16.159-1.024 7.258-3.249 15.541-1.077 22.711-4.733 4.115-2.084 8.812-.141 13.351-1.483.865-.265 2.084-.618 2.79.565.247-.247.565-.653.671-.618 4.309 2.049 8.406 4.291 12.786 6.181.6.265 1.554-.159 1.996.212 2.684 2.137 6.11 1.96 8.565 4.115 3.002-.883 6.163-.212 9.219-1.325.141-.035.547.565.6.53 2.013-1.325 4.044-.848 5.616-.318.6.212 1.766.653 2.313.777 1.978.477 3.497 1.325 5.581 1.66.194.035.53-.565.653-.53 1.978.777 3.815.689 4.98 2.737.247-.247.53-.653.671-.618 1.819.6 2.967 1.943 4.909 2.366.848.177 1.943 1.289 2.949 1.607 4.221 1.289 7.488 3.991 11.355 5.563 1.342.547 2.896.971 4.009 1.837z" fill="#cc7226"/><path d="M486.842 38.25c-4.447-3.038-8.629-4.998-12.941-8.159-.32-.23-.955.071-1.312-.141-1.778-1.077-3.347-2.102-5.081-3.338-.952-.671-2.402-.653-3.299-1.113-4.493-2.278-9.136-3.267-13.563-5.369 1.204-1.13 3.186-.689 4.238-2.119.344.494.765.989 1.388.653 2.963-1.589 6.23-1.854 9.19-1.695 3.009.159 6.047.689 9.181 1.183.542.071.894.989 1.464 1.166 3.935 1.166 8.154.247 11.896 1.731 2.81 1.113 5.582 2.561 7.77 4.804.445.459-.129 1.007-.623 1.342.685-.194 1.167.177 1.363.724.148.424.148.954 0 1.377-.198.547-.691.724-1.351.812-2.485.336.645-2.102-.592-1.307-2.248 1.448-.931 3.921-2.246 6.163-.494-.336-.901-.724-.706-1.413.413.918-.65 1.43-.947 1.996-.68 1.272-2.268 3.779-3.83 2.702z" fill="#cc7226"/><path d="M429.451 51.23c-5.57-1.395-10.956-1.201-16.283-3.461l-.625.53c-2.412-1.06-4.034-2.755-5.934-4.609-1.612-1.572-4.54-.883-6.79-1.748-.572-.212-.931-1.113-1.462-1.183-2.153-.283-3.79-1.96-5.635-2.967 4.125-1.413 8.383-1.342 12.731-2.031l.691.547c.24 0 .47-.406.706-.636.344.494.878 1.077 1.332.618.968-.954 1.95-.618 2.903-.547l.71.565.706-.565.706.565c.24 0 .47-.406.706-.636 1.222 1.377 2.785.406 4.237.724 1.833.389 2.305 2.419 4.201 2.949 8.327 2.296 15.633 6.093 23.338 9.784.542.247.913.689.719 1.377.472 0 1.024-.159 1.36.071 1.868 1.307 3.707 2.26 4.938 4.203.381.6-.2 1.325-.611 1.236-7.822-1.766-14.896-2.843-22.644-4.786z" fill="#cc7226"/><path d="M404.974 129.307c-2.811-2.153-3.843-5.739-5.835-8.904-.378-.6.106-1.155.666-1.312.989-.281 1.948.563 2.67.92 3.082 1.522 5.792 3.716 9.319 3.961 3.514 3.945 11.037 4.625 11.05 10.596.002 1.517-2.52-.104-3.279 1.413-4.328-1.771-8.547-1.589-12.751-4.18-1.09-.673-.507-1.473-1.84-2.494z" fill="#cc7226"/><path d="M356.342 36.449c.238 0 12.655.424 12.625.618-.079.547-13.731 2.402-14.373 2.102-.29-.141-13.556 4.15-13.792 3.921.473-.247 15.071-6.64 15.541-6.64z" fill="#cc7226"/><path d="M383.538 53.685s-26.137 3.179-33.907 5.298-40.618 15.541-45.916 19.073c0 0-23.664 9.536-53.686 44.856 0 0 13.422-6.004 17.307-10.949 0 0 24.018-22.252 23.664-17.66 0 0 21.545-15.188 20.486-11.302 0 0 43.09-19.779 39.558-14.128 0 0 38.146-8.124 36.38-4.592 0 0 33.201 7.77 28.256 8.124 0 0-10.243 2.119 1.06 8.477 0 0-6.004 7.77-15.541.706s-4.238-3.179-13.068-1.413c0 0-4.592 1.413-12.715-5.651 0 0-9.89-8.124-25.43-1.766 0 0-54.04 22.252-57.572 23.311 0 0-6.358 4.945-10.596 11.302 0 0-10.243 7.77-15.541 10.243 0 0-22.605 20.486-24.724 22.958 0 0-6.004 9.183-7.417 9.89 0 0 11.302-6.711 14.834-10.243 0 0 24.724-17.66 34.26-19.073 0 0 7.77-5.298 9.183-7.77 0 0 25.43-16.247 32.848-16.247 0 0 16.247 9.183 20.486-3.179 0 0 10.243-3.179 20.132-1.06 0 0 5.651-4.592 4.238-8.477 0 0 2.826-3.179 4.592 3.532 0 0 6.004 6.358 14.481 2.826 0 0 7.064-.353 3.532 3.885 0 0-7.77 6.711-28.609 7.064 0 0-21.898 1.06-50.861 14.481 0 0-52.627 18.366-68.874 36.733 0 0-11.302 15.541-20.839 17.66 0 0-10.243 1.413-20.839 14.481 0 0 17.307-10.243 33.201-10.243 0 0 7.064-4.238.353 2.119 0 0-6.358 13.422-3.532 22.958 0 0-1.06 9.183-2.472 12.009 0 0-13.775 22.605-13.775 26.843s2.119 21.545 2.826 22.605-1.766-2.826 4.945 1.413 11.656 7.064 13.068 12.009-3.532-9.536-3.885-12.715-7.77-15.894-6.358-20.132c0 0 1.766 1.766 3.179 4.238 0 0-1.06-1.06 0-7.417 0 0 1.413-9.183 3.885-14.834s6.004-12.362 6.711-13.775.706-11.656 3.179-7.064l6.004 4.592s-4.945-4.592-1.06-8.477c0 0-1.766-9.89 1.413-14.481 0 0 12.362-14.834 15.188-16.6l.353-1.06s10.596-7.417.353-4.592c0 0-7.064 2.826-12.362 2.826 0 0-13.422 3.532-6.358-3.885s24.724-16.954 31.435-16.6l1.413 2.826 19.779-4.238-2.119 1.413s-.353-.353 7.064-1.06 17.66 1.766 20.132-1.413 8.477-4.945 7.77-2.472l-1.06 6.004s8.83-10.243 7.77-6.358-15.541 13.068-18.013 24.018l18.366-14.481 6.358-5.298s6.358 3.885 6.711 1.06 8.477-13.068 10.596-12.715 5.651-4.592 5.298 0l13.068 14.128s5.651-3.179 8.124-.706l9.89-34.967 44.15-18.72 76.998-6.004-30.02-12.009-107.728-20.132z"/><path d="M51.4 85s-15-16.8-23.4-19.4c0 0-13.4-6.8-38 1" stroke-width="2" stroke="#4c0000" transform="matrix(1.766 0 0 1.766 324.907 255.009)"/><path d="M24.8 64.2s-25.2-8-40.6-3.8c0 0-18.4 2-26.8 15.8" stroke-width="2" stroke="#4c0000" transform="matrix(1.766 0 0 1.766 324.907 255.009)"/><path d="M21.2 63s-17-7.2-31.8-9.4c0 0-16.6-2.6-33.2 4.6 0 0-12.2 6-17.6 16.2" stroke-width="2" stroke="#4c0000" transform="matrix(1.766 0 0 1.766 324.907 255.009)"/><path d="M22.2 63.4s-15.4-11-16.4-12.4c0 0-7-11-20-11.4 0 0-21.4.8-38.6 8.8" stroke-width="2" stroke="#4c0000" transform="matrix(1.766 0 0 1.766 324.907 255.009)"/><path d="M361.808 351.092c2.723 2.584 50.34 53.674 50.34 53.674 62.163 64.636 12.715 4.238 12.715 4.238-13.422-8.477-29.669-41.678-29.669-41.678-2.119-4.945 24.724 12.715 24.724 12.715 7.064 1.413 31.082 35.32 31.082 35.32-12.009-4.238-3.532 8.477-3.532 8.477 4.945 3.532 40.973 31.082 40.973 31.082 6.358 7.064 13.42 9.89 13.42 9.89 24.724-9.183 13.422 14.128 13.422 14.128 4.238 12.009 14.128-8.477 14.128-8.477 19.779-29.669-9.183-25.43-9.183-25.43-52.98 4.945-64.989-23.311-64.989-23.311-4.238-4.238 11.302 0 11.302 0 14.836 3.532-12.715-21.898-12.715-21.898 4.238 0 20.486 12.009 20.486 12.009 18.368 16.247 21.9 12.715 21.9 12.715 31.786-15.541 50.153-2.119 50.153-2.119 3.532 2.826-6.358 14.834-3.532 24.018l11.302 31.082c-4.238 2.826-3.532 21.898-3.532 21.898 29.669 40.971 12.715 37.439 12.715 37.439-27.55-.706-1.413 12.715-1.413 12.715 5.651 3.532 21.192 16.247 21.192 16.247-4.945-2.119-7.77 7.064-7.77 7.064 8.477 7.064 3.532 15.541 3.532 15.541-10.596 2.119-12.715 9.183-12.715 9.183 12.009 14.128-5.651 14.834-5.651 14.834 6.358 7.77-2.119 28.962-2.119 28.962-8.477 0-19.779 9.89-19.779 9.89 4.238 8.477-14.128 18.366-14.128 18.366-14.834 2.826-9.89 14.834-9.89 14.834-14.126 10.596-18.365 38.852-18.365 38.852-1.413 18.366-5.651 24.018 3.532 20.486 9.181-3.532 7.769-25.43 7.769-25.43-8.475-27.55 67.108-55.806 67.108-55.806 7.064-2.826 8.477-12.009 8.477-12.009 3.532.706 19.073 14.128 19.073 14.128 13.422 19.779 14.128 3.532 14.128 3.532 2.119-6.358-.706-16.954-.706-16.954 10.596-38.146-14.128-49.448-14.128-49.448-17.66-59.338 7.064-44.503 7.064-44.503 4.945 9.89 24.018 19.073 24.018 19.073l6.358-4.238c-2.826-8.477 12.009-19.073 12.009-19.073 4.945 11.302 15.541-2.826 15.541-2.826 6.358-43.09 28.256-17.66 28.256-17.66 7.064 2.119 9.183-9.89 9.183-9.89 6.358-18.366 0-42.384 0-42.384 6.358-.706 23.311 9.89 23.311 9.89 4.945-6.358-11.302-36.026-4.238-31.788l14.834 7.064c1.413-3.532-16.247-25.43-16.247-25.43-7.77-4.945-16.954-40.971-16.954-40.971 12.715 6.358-4.945-20.486-4.945-20.486 0-5.651 10.596-25.43 10.596-25.43-1.413-12.009 0-11.302 0-11.302 4.945 2.119 19.073 4.945 7.064-6.358l1.413-19.779c7.77-4.945-16.247-4.238-16.247-4.238-9.183-7.77-8.477-14.834-8.477-14.834 14.128 3.532-11.302-21.898-15.541-28.256l12.715-15.541c23.311-6.358 2.826-12.009 2.826-12.009-34.614.706-15.541-18.366-15.541-18.366 10.596.706 7.77-3.532 7.77-3.532-9.183-2.119-26.137-13.422-26.137-13.422-7.064-6.358-.706-4.945-.706-4.945 29.669 2.119-21.192-17.66-21.192-17.66 14.128 0-17.66-18.366-17.66-18.366-3.532-2.826-9.183-16.247-9.183-16.247-10.596-9.183-19.073-21.192-19.073-21.192-.706-7.77-9.183-16.247-9.183-16.247-20.486-24.018-30.375-23.311-30.375-23.311-26.137-6.358-35.32-4.945-35.32-4.945l-93.245 7.77c-46.622 22.605-32.848 59.691-32.848 59.691 11.302 14.834 27.55 8.124 27.55 8.124 8.124-10.949 28.609-7.064 28.609-7.064 36.028 5.651 31.437-.706 31.437-.706-4.238-8.124-32.849-19.073-33.203-20.132l-15.894-7.064c-5.298-2.119-13.068-18.366-13.068-18.366-5.651-6.004 22.252 4.238 22.252 4.238-2.119 1.766 10.949 8.83 10.949 8.83 30.73-1.766 49.45 17.307 49.45 17.307 19.071 29.316 19.424 14.834 19.424 14.834 4.945-16.6-15.894-54.04-15.894-54.04.706-3.532 15.188 8.124 15.188 8.124 2.472-3.532 3.885 6.711 3.885 6.711.353 4.238 7.064 18.366 7.064 18.366 4.945 22.958 11.302 9.89 11.302 9.89l8.124 16.6c2.472 4.592-8.124 18.013-8.124 18.013-.353 4.945 1.06 4.592-8.83 18.013l-3.885 21.192c-2.472 11.656 13.068 10.949 13.068 10.949 4.592 3.885 10.596 3.885 10.596 3.885 3.179 3.532 7.417 2.472 7.417 2.472 2.826-6.711 13.775-3.179 13.775-3.179 2.472-4.238 16.954-4.945 16.954-4.945 1.766-4.592 2.472-7.417 8.477-8.477l-37.439-76.998c11.302-1.413-3.179-23.311-3.179-23.311-3.885-11.656 16.247 14.128 20.132 16.6s5.651 6.358 2.826 6.004-6.004 3.532-3.532 3.885 25.43 26.843 31.435 44.856 16.6 25.077 27.55 35.673l9.536 53.333c-.706 15.541 9.89 34.26 9.89 34.26 3.532 6.711-3.885 38.852-3.885 38.852-3.532 3.885-1.06 5.298-1.06 5.298 1.766 2.119 13.775 25.43 13.775 25.43-3.179-.353 3.179 6.004 3.179 6.004 9.183 10.596-2.119 5.298-2.119 5.298-10.596-2.826 1.766 14.481 1.766 14.481 2.119 3.179-13.775-4.945-13.775-4.945-16.247-1.06 4.238 11.656 4.238 11.656 15.188 12.715-4.945 4.945-4.945 4.945-8.124-3.179-2.472 8.83-2.472 8.83 5.651 2.826 36.026 15.188 36.026 15.188.706 6.711-4.592 15.541-4.592 15.541.706 7.064-3.179 13.068-3.179 13.068-2.119 14.481-3.179 15.894-3.179 15.894-7.417.353-20.486 24.724-20.486 24.724-3.179 4.592-21.192 25.784-21.192 25.784-3.532 12.362-35.32-.353-35.32-.353-11.656 6.004-8.124 0-8.124 0-.706-3.885 7.77-14.481 7.77-14.481 12.362-4.592 7.77-23.664 7.77-23.664 7.064-2.472-12.715-7.417-12.362-9.536l10.596-4.592c14.128-3.532 6.358-7.77 6.358-7.77-1.06-7.064 4.238-16.954 4.238-16.954 20.486-1.413 0-30.022 0-30.022-19.073-13.422-20.839-23.664-20.839-23.664 22.252-14.481 7.77-36.38 8.124-42.737l2.472-44.503c-3.532-10.949-8.83-34.967-8.83-34.967 3.885-9.183 16.954-31.435 16.954-31.435 4.945-7.417 20.486-15.894 16.6-21.192l-17.66-2.119c-13.775-2.472-12.715 6.711-12.715 6.711-2.826 1.766-4.238 10.596-4.238 10.596-1.272 14.01-16.954 25.077-16.954 25.077-19.779 10.949-3.532 18.013-3.532 18.013 10.596 11.656-6.711 12.009-6.711 12.009-19.426-3.179-4.945 14.834-4.945 14.834 19.073 22.605 13.775 27.55 13.775 27.55-18.013 1.766 4.238 18.013 4.238 18.013s-1.413-3.532-1.06-.353 5.651 10.596 7.064 14.128l-5.651 3.885c1.06 16.954-26.137 9.536-26.137 9.536l-2.826.353c-2.826.353-22.605-1.06-32.848-4.945l-22.25-3.885s-7.064 3.179-20.487 2.826c-13.422-.353-27.55 4.592-27.55 4.592-7.77-.706 7.417-8.477 7.77-8.124s10.243-9.536-3.885-8.477c-38.494 2.887-57.572-15.188-57.572-15.188-3.532-2.472-8.124-7.417-8.124-7.417-17.66-3.532 2.472 21.898 2.472 21.898 2.119 2.472-.353 4.238-.353 4.238-1.413-2.826-15.188-12.362-15.188-12.362-4.964-1.718-7.371-4.074-11.488-8.464z"/><path d="M319.609 330.594s20.486 9.89 25.077 14.834l29.316 25.077s-9.536-3.532-14.128-6.711l-23.664-17.66s-6.711-10.596-16.6-15.541z" fill="#4c0000"/><path d="M217.165 275.5c.595-.261-.33-5.051-.691-6.01-1.805-4.814-17.66-7.417-17.66-7.417-.401 2.411-.498 5.229-.311 8.122 0 0 8.597 9.747 18.661 5.305z" fill="#99cc32"/><path d="M217.165 275.147c-.793.279-.026-4.828-.337-5.656-1.805-4.814-18.013-7.594-18.013-7.594-.401 2.411-.498 5.229-.311 8.122 0 0 7.537 9.04 18.661 5.128z" fill="#659900"/><path d="M209.411 275.399c-1.104 0-1.997-2.013-1.997-4.496 0-2.481.894-4.494 1.997-4.494s1.999 2.013 1.999 4.494c0 2.483-.895 4.496-1.999 4.496z"/><path d="M209.411 270.903z"/><path d="M128.881 448.563s-9.89 17.66 33.907 7.064c0 0 24.724-2.119 28.962-6.358 2.119 1.413 16.894 6.587 21.898 7.77 12.009 2.826 26.843-14.834 26.843-14.834s8.124-18.543 13.068-18.543l-.706 2.826s-11.656 17.837-10.949 20.662c0 0-9.183 35.32-37.439 36.733 0 0-28.521 1.678-26.137 12.009 0 0 15.541-4.238 19.779 0 0 0 19.073-.706 4.945 10.596l-12.009 20.486s.247 6.923-17.66.706c-17.307-6.004-35.497-28.786-35.497-28.786s-28.168-25.695-9.007-50.331z"/><path d="M126.762 455.627s-3.532 16.954 61.457-1.413l12.009 1.413c4.238 1.413 25.43 6.358 28.962 4.238 0 0-12.715 24.018-33.201 21.192 0 0-23.311 2.826-22.605 11.302 0 0 7.064 12.715 15.541 16.954 0 0 4.945 4.238 4.238 9.89s-5.651 8.477-9.183 9.89-9.183-4.238-12.009-4.238-17.66-11.302-25.43-19.779-22.605-29.669-21.898-34.614l2.119-14.834z" fill="#e59999"/><path d="M132.413 486.443c4.592 6.976 10.243 14.393 14.128 18.631 7.77 8.477 22.605 19.779 25.43 19.779s8.477 5.651 12.009 4.238 8.477-4.238 9.183-9.89l-4.238-9.89c-5.415-2.702-10.253-8.865-13.042-12.98 0 0 .327 4.503-8.856 3.091s-18.366-6.358-21.192-12.009-7.064-9.89-4.238-3.532 7.064 12.715 9.89 13.422 2.119 2.826-2.119 2.119-9.183-1.413-16.954-10.596z" fill="#b26565"/><path d="M127.821 449.269s3.179-24.018 5.298-31.082c0 0-1.413-12.009 2.826-19.426s7.77-18.366 13.068-27.903 5.651-16.6 12.715-19.426 17.66-18.013 22.605-19.779l4.592-.353s12.009-26.137 36.026-19.073c0 0-28.609-4.945-.706-21.545 0 0-8.477 1.943-2.649-10.419 3.887-8.244 3.002 3.709-16.424 24.547 0 0-8.83 15.188-18.013 20.486s-30.375 17.66-32.494 24.371-7.77 16.954-11.302 19.779-8.477 10.243-9.183 16.247c0 0-2.119 7.064-4.592 9.183s-2.826 7.77-2.826 11.302-3.532 8.477-3.179 12.715c0 0 1.413 33.554.706 37.086l3.532-6.711z" fill="#992600"/><path d="M112.634 457.393s-3.532-2.472-11.302 8.124c0 0 12.892 58.278 12.892 60.75 0 0 1.943-3.709-.353-16.424l-3.885-35.143 2.649-17.307z" fill="#FFF"/><path d="M150.779 350.373s-31.082 5.651-30.375 57.218l-1.413 43.797s-2.119-45.21-4.238-48.035 4.945-22.605-.706-12.009c0 0-24.724 24.724-10.596 62.163 0 0 2.649 5.828-2.649-2.296 0 0-8.124-22.252-6.181-33.554 0 0 .353-3.885 3.709-8.83 0 0 15.188-20.662 19.956-24.724 0 0 3.179-25.43 30.375-34.614 0 0 10.066-4.062 2.119.883z" fill="#992600"/><path d="M396.96 233.464c1.166-.625 1.15-2.338 2.174-2.644 2.029-.608 2.319-2.492 3.234-3.876 1.542-2.329 1.883-5.037 2.91-7.67.48-1.236.528-2.923-.025-4.088-2.073-4.381-3.313-8.706-5.86-12.991-.473-.795-.936-2.197-1.291-3.253-.818-2.444-3.038-4.194-4.556-6.525-.509-.779.419-2.412-.846-2.561-1.584-.185-4.143-1.21-4.555.602-1.038 4.569.747 9.024 2.457 13.337-1.381 1.222-.791 2.849-.523 4.203 1.254 6.368-.862 12.288-2.206 18.423-.041.184.563.533.514.643-2.158 4.743-4.722 9.061-7.935 13.266-1.339 1.752-2.879 3.37-3.756 5.247-.65 1.39-1.37 3.096-.929 4.841-6.066 4.909-10.04 11.7-14.651 18.492-.816 1.201-.302 3.336.671 3.811 1.436.703 3.124-1.106 3.954-2.6.687-1.233 1.31-2.381 2.177-3.516l.157-1.263c4.65-4.145 7.597-9.33 11.929-13.512 3.444-.581 6.158-2.343 9.245-4.132.544-.316 1.469.124 1.981-.221 3.096-2.079 3.092-5.674 3.279-9.047.088-1.561.434-3.887 2.448-4.966z"/><path d="M381.347 225.577c.219-.136-.055-.883.138-1.264l1.284-1.476c.192-.381-.095-1.053.145-1.303 4.12-4.321 4.574-9.662 2.744-14.912 1.808-1.095 1.916-3.324 1.166-4.819-1.506-3.002-1.847-6.404-3.569-9.128-1.416-2.241-4.203-4.438-6.624-2.137-.743.706-1.31 2.096-.819 3.354l.569.691c-.189.572-1.153.968-1.164 1.448-.053 2.642-1.738 5.31-.625 7.657 1.363 2.877 2.81 6.156 4.004 9.293-2.179 3.737-.355 8.062-3.451 11.377-.24.258-.224.94-.009 1.296.516.858 1.233 1.575 2.091 2.091.357.214.971.217 1.325-.002 1.021-.639 1.724-1.499 2.797-2.163z"/><path d="M492.273 207.368c2.453 3.165 2.965 8.101-.653 10.555.971 5.844 6.889 2.349 10.594 1.413-.194-.685.212-1.293.706-1.302 1.872-.026 3.073-1.849 4.945-1.524.777-2.75 3.656-3.989 4.804-6.426 3.038-6.525 1.996-14.071-2.561-19.804-.353-.449.018-1.362-.194-2.001-1.342-3.905-4.98-4.461-8.406-5.676-2.077-6.843-3.244-13.962-6.356-20.486-2.85-.442-4.083-3.513-6.444-4.784-2.354-1.27-3.357 1.519-3.285 3.366.012.362.811.758.51 1.402-.134.29-.593.486-.593.722.002.238.392.47.629.706-1.621 1.448-4.134 2.291-4.655 4.313-1.685 6.552 2.859 12.071 5.805 17.724 1.044 2.004-.256 4.249-1.598 6.382-.774 1.227-.583 3.218-.095 4.729 1.328 4.117 4.138 7.188 6.849 10.69z"/><path d="M426.648 239.837c-2.626 3.269-8.652 7.806-3.5 11.211.343.228.996.235 1.302-.002 3.569-2.764 7.106-4.358 11.408-5.386.219-.051.703.774 1.355.489 2.849-1.241 6.398-1.139 8.489-3.502 6.653.396 12.948-1.575 18.937-3.885 2.05-.791 4.293-1.778 6.414-2.665 2.43-1.017 4.556-2.656 6.52-4.671.235-.24.86-.081 1.332-.081-.071-1.524 1.628-1.748 2.064-2.847.162-.41-.102-1.109.132-1.289 3.776-2.879 5.4-6.442 3.336-10.64-.503-1.021-.943-2.112-1.943-2.953-1.916-1.609-3.862-.101-5.711-.638-.281 1.109-1.568.805-2.25 1.155l-5.388.516c-2.405 1.227-4.597 1.526-7.108 2.192-.551.145-1.925-.025-2.208 1.083-.237-.237-.498-.65-.685-.611-3.37.699-5.595 1.077-7.892 4.065-.182.235-.962-.081-1.243.157-1.69 1.427-2.405 3.606-4.35 4.793-.355.217-.977-.079-1.319.148-1.141.761-1.789 1.893-2.923 2.683-.581.404-1.287-.17-1.231-.622.433-3.438 1.586-6.594.57-9.907 3.668-4.45 8.113-7.892 11.302-12.715.026-3.825 1.249-7.615 1.049-11.283-.018-.341-.526-1.635-.749-2.248-.551-1.508 1.049-3.391-.442-4.669-2.479-2.124-4.761-.577-6.216 1.953-3.246.689-6.894 1.913-9.681-.267-1.778-1.39-2.799-2.99-4.21-4.855-1.74-2.299-1.148-4.835-1.024-7.597l-.546-.703c.002-.238.39-.47.627-.706-1.247-1.106-1.732-2.974-3.532-3.532.539-1.928-.655-3.49-2.193-4.023-3.523-1.22-6.485 2.156-9.826 2.285-.908.034-1.732-1.8-2.879-2.374-.763-.381-2.006-.44-2.645.03-1.215.89-2.255 1.091-3.594 1.453-2.856.77-5.113 2.702-7.726 4.212-2.623 1.513-4.309 4.051-6.216 6.382-1.662 2.034-1.902 6.298.606 7.181 3.255 1.148 5.558-3.626 9.03-3.05.551.09.915.639.721 1.325.687.192 1.072-.212 1.413-.706 1.515 1.8 3.571 2.395 5.227 3.936 1.713 1.596 4.796.858 6.589 2.619 2.7 2.653 1.713 7.387 5.137 9.692-1.035 2.319-2.107 4.574-2.698 7.094-.498 2.13 1.257 4.244 3.396 4.083 2.222-.166 2.684-1.506 3.541-3.407.472.472 1.3.996 1.227 1.377-.807 4.215-2.621 7.735-3.43 12.028-.104.56-.643.917-1.33.722-.826 7.327-7.982 11.555-12.477 17.144-.712.887-.719 3.092.004 3.804 2.478 2.449 5.939-.281 8.941-1.169.376-2.13 1.893-3.793 4.245-3.694.452.018.867-.94 1.439-1.169.615-.244 1.501.152 2.006-.198 3.053-2.11 5.54-4.064 8.609-6.163.339-.231.947.049 1.328-.141.574-.286.904-.97 1.475-1.296.615-.353 1.042.159 1.383.653-1.141.616-1.148 2.306-2.176 2.663-1.369.473-2.359 1.379-3.55 2.169-.516.341-1.679-.097-1.863.219-1.056 1.815-3.147 2.589-4.401 4.148z"/><path d="M328.792 152.581s-16.314-5.072-36.026 40.265c0 0-4.238 9.183-8.477 12.715s-24.018 9.89-27.55 16.954l-18.366 28.256s26.137-28.256 31.788-32.494c0 0 14.128-14.834 8.477-2.826 0 0-24.724 19.073-22.605 35.32 0 0-9.89 25.43-11.302 28.962 0 0 28.256-56.512 32.494-58.631s6.358-2.119 4.238 4.238-2.826 35.32-7.77 38.852c0 0 14.128-36.026 12.715-41.678 0 0 5.651-6.358 9.89 2.826l-2.119 28.256 7.77 21.192s-4.238-19.779-1.413-47.329c0 0-3.532-18.366 3.532-8.477s24.018 20.486 24.018 28.962c0 0-9.183-31.082-25.43-39.558l-7.064 10.596-2.119-3.532s-6.358-1.413 1.413-13.422l7.064-13.422s11.302 12.715 14.128 12.715c0 0 23.311-13.422 25.43 29.669 0 0 12.009-25.43-4.238-37.439 0 0-26.137-3.532-24.018-12.715l12.715-21.898c6.358-9.183 3.532-4.238 3.532-4.238z"/><path d="M293.472 181.543l-28.256 9.183-12.715 16.954s30.375-17.66 37.439-19.779l3.532-6.358z"/><path d="M222.832 192.846s-3.532 2.119-4.238 7.064-4.945 5.651-3.532 10.596 4.945 9.183 4.945 2.119 2.826-10.596 4.238-12.715 4.238-9.89-1.413-7.064z"/><path d="M207.291 300.925s-14.834-7.064-20.486-13.422-4.853 2.766-13.422 2.119c-10.326-.779-8.477-28.962-8.477-28.962l-7.064 13.422s-2.119 25.43 12.009 21.192c6.9-2.07 9.183.706 6.358 2.119s9.89 2.119 4.945 4.945 20.486-6.358 16.247 12.009l9.89-13.422z"/><path d="M185.04 326.355s-27.196 7.77-33.554-9.183c0 0-8.477 4.238-4.592 9.536l6.004 6.004s9.536 2.119 8.477 3.532l-5.298 7.417s18.013-10.596 28.962-17.307z"/><path d="M588.394 464.457c-.759 3.779-3.709 5.192-7.064 6.358-3.391-1.695-7.965-7.17-11.302-3.532-.83-.848-2.208-.954-2.826-2.119-.812-1.589-.336-3.426-.936-4.839-.971-2.26-2.208-4.662-1.89-7.17 3.196-1.254 4.238-4.627 3.408-7.735-.124-.459-.883-.795-.53-1.413.336-.583.883-.971 1.36-1.448-.23.247-.494.653-.689.618-1.077-.194-.865-1.325-.636-1.996 1.042-3.091 4.592-3.55 6.976-1.448.459-.989 1.36-.653 2.119-.706-.088-1.024.636-1.96.989-2.702.918-1.925 3.779.018 5.192-1.06 1.907-1.466 3.779-2.684 5.687-1.625 3.196 1.784 6.216 3.921 8.336 7.011 1.007 1.466 1.43 3.726 1.325 5.422-.071 1.148-2.508.512-3.108 2.155-1.148 3.091 2.102 4.009 3.426 6.375.353.618-.106 1.148-.671 1.325-.724.23-2.102-.106-1.872.689 1.731 5.634-3.143 6.834-7.294 7.841z" fill="#FFF"/><path d="M571.441 499.07c-.018-3.073-2.843-6.163-.706-9.183.247.247.477.636.706.636.247 0 .477-.389.706-.636 2.649 3.921 9.095 5.545 8.848 10.578-.053.795-1.96 2.419-.371 3.55-3.196 2.384-3.302 6.57-4.945 9.89-2.19-.494-4.327-1.148-6.358-2.119.618-2.614.424-5.598 1.872-7.929.759-1.236.247-3.143.247-4.786z" fill="#FFF"/><path d="M277.931 483.176s-29.771 17.907-4.945-9.183c15.541-16.954 33.201-26.843 33.201-26.843s18.366-7.77 24.724-9.89 33.201-11.302 38.852-12.009 22.605-7.77 34.614-.706l26.137 14.834s-28.962-14.834-35.32-10.596-19.073 3.532-29.669 9.183c0 0-26.137 7.77-31.788 11.302s-24.018 24.018-26.843 22.605.706-2.119 2.826-7.064-1.413-7.77-15.541 3.532l-16.247 14.834z" fill="#CCC"/><path d="M291.009 472.633s2.49-23.029 17.462-20.079c0 0 14.527-7.364 19.334-10.843 0 0 14.373-3.002 16.687-4.097 32.634-15.361 58.628-7.38 59.594-9.358.964-1.976 35.622 10.594 41.995 17.8.691.795-18.068-9.872-35.195-13.21-14.61-2.856-52.759.424-72.019 10.207-5.25 2.667-21.047 12.874-25.517 12.68l-22.342 16.901z"/><path d="M284.289 517.79s-26.843-4.238 2.826-7.064c0 0 31.788-3.532 38.852-12.715 0 0 24.018-16.247 28.962-16.954s57.925-13.422 58.631-17.66 10.596-4.238 13.422-2.826 1.413 3.532-3.532 4.945-60.044 30.375-71.346 32.494-31.788 15.541-40.265 17.66l-27.55 2.119z" fill="#CCC"/><path d="M318.761 504.721s-15.156-1.466.034-2.896c0 0 15.569-6.057 19.186-10.755 0 0 12.298-8.318 14.829-8.689 2.532-.353 27.186-6.87 27.548-9.042s60.523-24.388 68.328-18.755c5.141 3.709-12.344.759-29.358 8.547-2.393 1.095-62.177 26.843-67.965 27.938-5.787 1.077-16.275 7.947-20.616 9.042-4.339 1.077-11.986 4.609-11.986 4.609z"/><path d="M304.775 508.607s9.183-.706 7.064 2.119l-6.358 1.413-.706-3.532z"/><path d="M292.059 511.432s9.183-.706 7.064 2.119l-6.358 1.413-.706-3.532z"/><path d="M273.693 514.258s9.183-.706 7.064 2.119l-6.358 1.413-.706-3.532z"/><path d="M260.271 515.671s9.183-.706 7.064 2.119l-6.358 1.413-.706-3.532z"/><path d="M328.086 445.737l5.651 2.826c-2.119 2.826-7.77 2.119-7.77 2.119l2.119-4.945z"/><path d="M310.426 455.627s11.49-3.779 7.064 2.119c-2.119 2.826-6.358 1.413-6.358 1.413l-.706-3.532z"/><path d="M290.647 464.103s9.183-.706 7.064 2.119l-6.358 1.413-.706-3.532z"/><path d="M277.225 474.699s9.183-.706 7.064 2.119l-6.358 1.413-.706-3.532z"/><path d="M265.216 483.176s9.183-.706 7.064 2.119l-6.358 1.413-.706-3.532z"/><path d="M334.235 494.479s12.222-.936 9.402 2.826c-2.82 3.744-8.463 1.872-8.463 1.872l-.94-4.698z"/><path d="M352.601 486.002s12.222-.936 9.402 2.826c-2.82 3.744-8.463 1.872-8.463 1.872l-.94-4.698z"/><path d="M371.674 478.231s12.222-.936 9.402 2.826c-2.82 3.744-8.463 1.872-8.463 1.872l-.94-4.698z"/><path d="M390.041 469.755s12.222-.936 9.402 2.826c-2.82 3.744-8.463 1.872-8.463 1.872l-.94-4.698z"/><path d="M341.299 437.967s12.222-.936 9.402 2.826c-2.82 3.744-9.875 3.285-9.875 3.285l.473-6.11z"/><path d="M358.959 432.315s12.222-.943 9.402 2.826c-2.82 3.744-10.582 3.285-10.582 3.285l1.18-6.11z"/><path d="M318.903 502.955s9.183-.706 7.064 2.119l-6.358 1.413-.706-3.532z"/><path d="M189.631 327.768s-7.77 15.541-8.477 21.192c0 0 1.413-15.541 3.532-19.073l4.945-2.119z" fill="#992600"/><path d="M157.137 352.492s-5.651 25.43-4.945 30.375c0 0-2.119-20.486-1.413-22.605l6.358-7.77z" fill="#992600"/><path d="M193.87 220.749l-.353 5.651-3.885.353s25.077 22.252 26.137 35.673c0 0 1.413-14.481-21.898-41.678z" fill="#CCC"/><path d="M200.906 222.983c-.761-.735-.374-2.05-1.095-2.509-1.429-.911 2.292-1.012 1.89-2.276-.676-2.13-.346-2.167-.562-4.42-.101-1.056.938-3.776 1.618-4.553 2.554-2.917.215-8.095 3.112-10.834.537-.51 1.201-1.485 1.704-2.223 1.164-1.701 3.255-2.562 4.932-4.025.562-.487.207-1.948 1.211-1.785 1.261.203 3.453-.026 3.373 1.459-.2 3.744-2.547 6.781-4.807 9.727.796 1.243-.012 2.365-.514 3.348-2.358 4.627-2.024 9.644-2.331 14.66-.009.15-.551.288-.537.381.623 4.124 1.655 8.007 3.207 11.943.646 1.642 1.478 3.223 1.743 4.86.196 1.211.378 2.683-.343 3.928 3.594 5.104 1.282 9.785 3.347 16.021.366 1.104 3.354 4.484 2.536 4.2-4.438-1.538-4.636-2.241-4.948-3.571-.258-1.1-.841-3.532-1.259-4.595-.113-.29-.415-3.617-.553-3.832-2.672-4.207-.274-3.896-2.693-8.06-2.522-1.201-4.228-3.151-6.211-5.203-.35-.36 1.669-1.639 1.349-2.015-1.928-2.276-3.965-3.631-3.371-6.268.274-1.219.516-3.085-.798-4.357z"/><path d="M194.576 226.047s.706 12.009 4.945 14.834 2.119 1.413-3.532-.706l-3.532-3.532s-4.945.706-.706 4.238 10.596 7.77 7.77 7.77-16.247-7.064-16.247-12.009l-1.766-12.185s1.943-1.413 10.419-1.236c0 0 2.472 1.236 2.649 2.826z"/><path d="M-74.6 2.2s-8.52-2.791-27 .6c0 0 9.031-2.078 27.8.2 10.3 1.25-.8-.8-.8-.8z" stroke-width=".1" stroke="#000" fill="#FFF" transform="matrix(1.766 0 0 1.766 324.907 255.009)"/><path d="M-72.502 2.129s-8.246-3.518-26.951-1.737c0 0 9.178-1.289 27.679 2.603 10.154 2.136-.728-.866-.728-.866z" stroke-width=".1" stroke="#000" fill="#FFF" transform="matrix(1.766 0 0 1.766 324.907 255.009)"/><path d="M-70.714 2.222s-7.962-4.121-26.747-3.736c0 0 9.248-.604 27.409 4.654 9.966 2.885-.662-.918-.662-.918z" stroke-width=".1" stroke="#000" fill="#FFF" transform="matrix(1.766 0 0 1.766 324.907 255.009)"/><path d="M-69.444 2.445s-6.824-4.307-23.698-5.405c0 0 8.339.17 24.22 6.279 8.716 3.353-.522-.874-.522-.874z" stroke-width=".1" stroke="#000" fill="#FFF" transform="matrix(1.766 0 0 1.766 324.907 255.009)"/><path d="M45.84 12.961s-.93.644-.716-.537c.215-1.181 28.423-14.351 32.037-14.101 0 0-30.248 13.206-31.321 14.638z" stroke-width=".1" stroke="#000" fill="#FFF" transform="matrix(1.766 0 0 1.766 324.907 255.009)"/><path d="M42.446 13.6s-.876.715-.755-.479 27.208-16.539 30.83-16.573c0 0-29.117 15.541-30.075 17.052z" stroke-width=".1" stroke="#000" fill="#FFF" transform="matrix(1.766 0 0 1.766 324.907 255.009)"/><path d="M39.16 14.975s-.828.772-.786-.428c.042-1.199 19.859-16.696 29.671-18.57 0 0-18.03 8.127-28.885 18.998z" stroke-width=".1" stroke="#000" fill="#FFF" transform="matrix(1.766 0 0 1.766 324.907 255.009)"/><path d="M36.284 16.838s-.745.694-.707-.385c.038-1.08 17.872-15.027 26.703-16.713 0 0-16.226 7.314-25.996 17.098z" stroke-width=".1" stroke="#000" fill="#FFF" transform="matrix(1.766 0 0 1.766 324.907 255.009)"/><path d="M333.031 546.046s-26.843-4.238 2.826-7.064c0 0 31.788-3.532 38.852-12.715 0 0 24.018-16.247 28.962-16.954s33.907-7.064 34.614-11.302 11.302-8.477 14.128-7.064 2.826 17.66-2.119 19.073-38.146 14.128-49.448 16.247-31.788 15.541-40.265 17.66l-27.55 2.119z" fill="#CCC"/><path d="M461.949 479.997s-5.298 2.826-7.417 7.417c0 0-11.302 18.72-36.38 24.371 0 0-40.618 15.894-54.393 19.426 0 0-23.664 8.83-36.733 7.417 0 0-12.362.353-1.413 3.179 0 0 35.673-3.532 41.678-6.711 0 0 27.55-9.183 32.848-13.775s37.439-13.422 41.324-16.954 21.192-18.366 20.486-24.371z"/><path d="M358.253 535.644s9.234-.406 7.198 2.331l-6.359 1.201-.839-3.532z"/><path d="M345.534 538.028s9.233-.389 7.198 2.349c-2.036 2.737-6.359 1.183-6.359 1.183l-.839-3.532z"/><path d="M327.116 540.236s9.234-.406 7.198 2.331l-6.359 1.201-.839-3.532z"/><path d="M313.635 541.207s9.234-.406 7.198 2.331l-6.359 1.183-.839-3.514z"/><path d="M387.45 522.576s12.291-.53 9.581 3.108c-2.709 3.656-8.464 1.589-8.464 1.589l-1.116-4.698z"/><path d="M405.666 514.77s10.524-5.828 9.581 3.108c-.477 4.503-8.464 1.589-8.464 1.589l-1.116-4.698z"/><path d="M421.793 509.79s12.643-6.534 9.581 3.126c-1.374 4.309-8.466 1.589-8.466 1.589l-1.114-4.715z"/><path d="M438.595 501.278s7.698-8.653 9.581 3.108c.717 4.486-8.464 1.589-8.464 1.589l-1.116-4.698z"/><path d="M372.296 530.505s9.233-.406 7.198 2.331c-2.036 2.737-6.361 1.201-6.361 1.201l-.837-3.532z"/><path d="M62.434 34.603s-.726.665-.727-.406c0-1.07 17.484-14.334 26.327-15.718 0 0-16.099 6.729-25.6 16.124z" stroke-width=".1" stroke="#000" fill="#FFF" transform="matrix(1.766 0 0 1.766 324.907 255.009)"/><path d="M440.403 428.783s38.854 39.558 55.101 45.916c0 0 16.245 19.779 9.181 65.695 0 0-5.649 13.422-11.301-23.311 0 0 5.651-44.503-14.128-16.247 0 0-14.836-17.483-3.534-16.954 0 0 5.653 3.532 6.359.706s-13.423-26.843-43.799-52.274l2.119-3.532z"/><path d="M7 137.2s-.2-1.8 1.6-1 96 7 127.6 31c0 0-45.199-23.2-129.2-30z" stroke-width=".1" stroke="#000" fill="#FFF" transform="matrix(1.766 0 0 1.766 324.907 255.009)"/><path d="M17.4 132.8s-.2-1.8 1.6-1 138.4-.2 162 32.2c0 0-22-25.2-163.6-31.2z" stroke-width=".1" stroke="#000" fill="#FFF" transform="matrix(1.766 0 0 1.766 324.907 255.009)"/><path d="M29 128.8s-.2-1.8 1.6-1 175.2-12.2 198.8 20.2c0 0-9.6-25.6-200.4-19.2z" stroke-width=".1" stroke="#000" fill="#FFF" transform="matrix(1.766 0 0 1.766 324.907 255.009)"/><path d="M39 124s-.2-1.8 1.6-1 124-37.8 147.6-5.4c0 0-13.4-24.6-149.2 6.4z" stroke-width=".1" stroke="#000" fill="#FFF" transform="matrix(1.766 0 0 1.766 324.907 255.009)"/><path d="M-19 146.8s-.2-1.8 1.6-1 19.6 3 21.6 41.8c0 0-7.2-42-23.2-40.8z" stroke-width=".1" stroke="#000" fill="#FFF" transform="matrix(1.766 0 0 1.766 324.907 255.009)"/><path d="M-27.8 148.4s-.2-1.8 1.6-1 16-3.8 13.2 35c0 0 1.2-35.2-14.8-34z" stroke-width=".1" stroke="#000" fill="#FFF" transform="matrix(1.766 0 0 1.766 324.907 255.009)"/><path d="M-35.8 148.8s-.2-1.8 1.6-1 17.2 1.4 4.8 23.8c0 0 9.6-24-6.4-22.8z" stroke-width=".1" stroke="#000" fill="#FFF" transform="matrix(1.766 0 0 1.766 324.907 255.009)"/><path d="M11.526 104.46s-.444 2 1.105.79c16.068-12.628 48.51-71.53 104.2-77.164 0 0-38.312-12.11-105.3 76.374z" stroke-width=".1" stroke="#000" fill="#FFF" transform="matrix(1.766 0 0 1.766 324.907 255.009)"/><path d="M22.726 102.66s-1.363-1.19.505-1.81c1.868-.63 114.31-73.13 153.6-65.164 0 0-27.11-7.51-154.1 66.974z" stroke-width=".1" stroke="#000" fill="#FFF" transform="matrix(1.766 0 0 1.766 324.907 255.009)"/><path d="M1.885 108.77s-.509 1.6 1.202.62c8.975-5.12 12.59-62.331 56.167-63.586 0 0-32.411-14.714-57.369 62.966z" stroke-width=".1" stroke="#000" fill="#FFF" transform="matrix(1.766 0 0 1.766 324.907 255.009)"/><path d="M-18.038 119.79s-1.077 1.29.876 1.03c10.246-1.33 31.651-42.598 76.09-37.519 0 0-31.966-14.346-76.966 36.489z" stroke-width=".1" stroke="#000" fill="#FFF" transform="matrix(1.766 0 0 1.766 324.907 255.009)"/><path d="M-6.8 113.67s-.811 1.47 1.058.84c9.799-3.27 22.883-47.885 67.471-51.432 0 0-34.126-7.943-68.529 50.592z" stroke-width=".1" stroke="#000" fill="#FFF" transform="matrix(1.766 0 0 1.766 324.907 255.009)"/><path d="M-25.078 124.91s-.873 1.04.709.84c8.299-1.08 25.637-34.51 61.633-30.396 0 0-25.893-11.62-62.342 29.556z" stroke-width=".1" stroke="#000" fill="#FFF" transform="matrix(1.766 0 0 1.766 324.907 255.009)"/><path d="M-32.677 130.82s-1.005 1.05.586.93c4.168-.31 34.806-33.39 53.274-17.89 0 0-12.015-18.721-53.86 16.96z" stroke-width=".1" stroke="#000" fill="#FFF" transform="matrix(1.766 0 0 1.766 324.907 255.009)"/><path d="M36.855 98.898s-1.201-1.355.731-1.74c1.932-.384 122.63-58.097 160.59-45.231 0 0-25.94-10.874-161.32 46.971z" stroke-width=".1" stroke="#000" fill="#FFF" transform="matrix(1.766 0 0 1.766 324.907 255.009)"/><path d="M3.4 163.2s-.2-1.8 1.6-1 17.2 1.4 4.8 23.8c0 0 9.6-24-6.4-22.8z" stroke-width=".1" stroke="#000" fill="#FFF" transform="matrix(1.766 0 0 1.766 324.907 255.009)"/><path d="M13.8 161.6s-.2-1.8 1.6-1 19.6 3 21.6 41.8c0 0-7.2-42-23.2-40.8z" stroke-width=".1" stroke="#000" fill="#FFF" transform="matrix(1.766 0 0 1.766 324.907 255.009)"/><path d="M20.6 160s-.2-1.8 1.6-1 26.4 4.2 50 36.6c0 0-35.6-36.8-51.6-35.6z" stroke-width=".1" stroke="#000" fill="#FFF" transform="matrix(1.766 0 0 1.766 324.907 255.009)"/><path d="M28.225 157.97s-.437-1.76 1.453-1.2c1.89.55 22.324-1.35 60.421 32.83 0 0-46.175-34.94-61.874-31.63z" stroke-width=".1" stroke="#000" fill="#FFF" transform="matrix(1.766 0 0 1.766 324.907 255.009)"/><path d="M38.625 153.57s-.437-1.76 1.453-1.2c1.89.55 36.724 5.05 88.422 40.03 0 0-74.176-42.14-89.875-38.83z" stroke-width=".1" stroke="#000" fill="#FFF" transform="matrix(1.766 0 0 1.766 324.907 255.009)"/><path d="M-1.8 142s-.2-1.8 1.6-1 55.2 3.4 85.6 30.2c0 0-34.901-24.77-87.2-29.2z" stroke-width=".1" stroke="#000" fill="#FFF" transform="matrix(1.766 0 0 1.766 324.907 255.009)"/><path d="M-11.8 146s-.2-1.8 1.6-1 26.4 4.2 50 36.6c0 0-35.6-36.8-51.6-35.6z" stroke-width=".1" stroke="#000" fill="#FFF" transform="matrix(1.766 0 0 1.766 324.907 255.009)"/><path d="M49.503 148.96s-.565-1.72 1.361-1.3c1.926.41 36.996 2.34 91.116 33.44 0 0-77.663-34.4-92.477-32.14z" stroke-width=".1" stroke="#000" fill="#FFF" transform="matrix(1.766 0 0 1.766 324.907 255.009)"/><path d="M57.903 146.56s-.565-1.72 1.361-1.3c1.926.41 36.996 2.34 91.116 33.44 0 0-77.063-34.8-92.477-32.14z" stroke-width=".1" stroke="#000" fill="#FFF" transform="matrix(1.766 0 0 1.766 324.907 255.009)"/><path d="M67.503 141.56s-.565-1.72 1.361-1.3c1.926.41 44.996 4.74 134.72 39.04 0 0-120.66-40.4-136.08-37.74z" stroke-width=".1" stroke="#000" fill="#FFF" transform="matrix(1.766 0 0 1.766 324.907 255.009)"/><path d="M247.556 517.083s9.183-.706 7.064 2.119l-6.358 1.413-.706-3.532z"/><path d="M301.949 541.807s9.183-.706 7.064 2.119l-6.358 1.413-.706-3.532z"/><path d="M286.408 541.101s9.183-.706 7.064 2.119l-6.358 1.413-.706-3.532z"/><path d="M117.985 520.227s8.918 2.331 5.987 4.309l-6.481-.742.494-3.567z"/><path d="M121.517 503.273s8.918 2.331 5.987 4.309l-6.481-.742.494-3.567z"/><path d="M108.802 495.503s8.918 2.331 5.987 4.309l-6.481-.742.494-3.567z"/><path d="M249.675 627.988l-9.89 3.532c-3.532 0-23.311 6.358-33.201 24.018 0 0 21.898-16.954 43.09-27.55z" fill="#CCC"/><path d="M404.582 791.608c.249.442.346 1.183.862 1.219 1.162.071 3.34.6 3.119-.512-1.498-7.611-3.041-16.335-10.34-19.514-1.128-.494-3.675.23-3.806 1.801-.224 2.684-.431 5.068.115 7.647.53 2.525 4.341 2.525 5.96.088 1.653 2.949 2.416 6.216 4.09 9.271z" fill="#CCC"/><path d="M385.018 799.961c1.321 2.49 1.097 5.775 3.596 6.781 1.307.512 4.574-1.201 3.836-3.108-1.416-3.638-2.102-7.594-4.555-10.79-.353-.459.071-1.395-.212-1.978-1.049-2.155-3.071-3.461-5.558-2.879-1.969 3.885.058 7.647 2.746 10.667.24.265-.053.936.147 1.307z" fill="#CCC"/><path d="M315.081 790.796c-.191-.671-.258-1.483.034-2.049.938-1.819 2.338-3.797 1.743-5.616-.615-1.854-2.585-1.536-3.733-.53-2.004 1.748-2.091 4.98-3.311 7.382-.346.671-.256 1.695-1.035 2.384-.837.742-1.614 3.426-1.445 4.433.094.565-.23 18.049.162 17.589 1.093-1.289 6.479-18.49 6.601-20.062.101-1.289 1.393-2.102.984-3.532z" fill="#CCC"/><path d="M269.804 778.805c4.652-4.415 9.579-9.642 8.798-16.194-.205-1.731-3.34-.795-3.67.689-1.416 6.411-5.017 11.108-9.552 15.329-3.878 3.62-7.166 14.817-7.581 15.717 6.529-9.289 10.515-14.128 12.005-15.541z" fill="#CCC"/><path d="M245.833 768.279c.924-.671.39-1.536.774-2.119 1.683-2.578 3.981-4.768 4.012-7.841.005-.494-.662-1.042-1.254-.636-.489.318-1.093.547-1.284.777-3.585 4.327-6.057 9.042-8.606 14.004-.323.636-2.343 8.565-1.791 8.759.422.159 3.46-7.223 3.83-7.435 2.23-1.201 2.252-4.062 4.318-5.51z" fill="#CCC"/><path d="M275.383 802.787c.784-1.536 3.567-3.656 3.368-5.227-.208-1.642.618-4.185-.992-2.967-2.22 1.66-8.311 4.044-8.788 14.305-.046 1.007 5.206-3.744 6.412-6.11z" fill="#CCC"/><path d="M300.889 772.447c.706-1.183 1.957-.336 2.767-.812 1.144-.653 2.223-1.642 2.739-2.79 1.713-3.779 4.837-6.993 5.09-11.232-2.633-2.472-3.832 1.13-4.945 2.826-2.336-2.914-4.101.406-6.396 1.325l-.632-.512c-2.079.777-3.279 2.684-5.042 4.062-.302.23-1.017-.088-1.277.159-1.151 1.06-2.87 1.642-3.364 2.843-1.96 4.768-7.505 8.477-10.838 21.792.673 1.607 7.968-11.726 8.828-12.962 1.476-2.119 1.685 2.932 3.938 1.766.09-.053.419.371.655.6.343-.494.728-.901 1.413-.706 0-.706-.237-1.695.118-1.96 2.185-1.731 2.036-3.62 3.414-5.81.809 1.395 2.683.124 3.532 1.413z" fill="#CCC"/><path d="M406.496 868.517s13.068-36.026 5.298-55.806c0 0 20.132 38.146 12.009 57.925 0 0-.706-18.366-7.77-27.196 0 0-7.064 22.605-9.536 25.077z" fill="#CCC"/><path d="M380.359 863.926s9.536-15.541-4.592-48.035c0 0-1.413 36.026-13.422 55.452 0 0 25.077-35.673 18.013-7.417z" fill="#CCC"/><path d="M362.699 860.394s-.353-35.32.353-40.618c0 0-6.711 29.316-24.724 46.269 0 0 25.43-21.192 24.371-5.651z" fill="#CCC"/><path d="M345.746 803.882s10.596 24.018-7.064 56.512c0 0 11.302-21.545 2.826-33.907 0 0 4.592-6.004 4.238-22.605z" fill="#CCC"/><path d="M311.839 859.687s-1.766-27.55 1.413-31.435c0 0 .353-11.302-.353-13.068 0 0 7.064-10.949 7.417 2.119 0 0 2.472 13.775 7.417 21.898 0 0 6.358 9.536 6.004 20.839 0 0-17.66-53.333-21.898-.353z" fill="#CCC"/><path d="M305.481 810.946s-11.656 19.073-14.834 52.627c0 0-2.472-10.949 4.238-36.38 0 0 7.417-27.196 10.596-16.247z" fill="#CCC"/><path d="M266.982 845.913s8.83-9.536 11.302-18.366c0 0 6.358-27.903-4.945-12.715 0 0 .353 14.128-14.128 27.196 0 0 8.477-4.238 7.77 3.885z" fill="#CCC"/><path d="M256.739 837.083s6.004-30.728 7.417-32.141c0 0 3.179-6.004-1.766-.353 0 0-15.541 33.907-22.605 45.563 0 0 14.128-16.247 16.954-13.068z" fill="#CCC"/><path d="M246.497 807.767s20.486-39.558-18.013 6.004c0 0 19.426-17.307 18.013-6.004z" fill="#CCC"/><path d="M219.3 781.983s8.477-33.201 13.068-32.848l2.826 2.826s-10.596 16.954-9.536 34.26c0 0-1.06-16.954-6.358-4.238z" fill="#CCC"/><path d="M802.61 761.851s-21.192-17.66-25.607-23.841c0 0 23.841 32.671 23.841 45.033 0 0 4.415-13.245 1.766-21.192z" fill="#CCC"/><path d="M812.323 722.999s-37.086-26.49-43.267-39.735c0 0 46.799 52.097 46.799 60.044 0 0 .883-15.894-3.532-20.309z" fill="#CCC"/><path d="M842.345 451.035s-21.192-14.128-23.841-10.596c0 0 18.543 11.479 22.958 26.49 0 0-2.649-15.894.883-15.894z" fill="#CCC"/><path d="M857.356 593.198l-30.905-21.192s33.554 30.022 34.437 37.086l-3.532-15.894z" fill="#CCC"/><path d="M-89.25 169l22 4.75" stroke="#000" transform="matrix(1.766 0 0 1.766 324.907 255.009)"/><path d="M-39 331s-.5-3.5-9.5 7" stroke="#000" transform="matrix(1.766 0 0 1.766 324.907 255.009)"/><path d="M-33.5 336s2-6.5-4.5-2" stroke="#000" transform="matrix(1.766 0 0 1.766 324.907 255.009)"/><path d="M20.5 344.5s1.5-11-10 2" stroke="#000" transform="matrix(1.766 0 0 1.766 324.907 255.009)"/></g></svg>